<?xml version="1.0" encoding="UTF-8"?>
<!DOCTYPE svg PUBLIC "-//W3C//DTD SVG 1.1//EN" "http://www.w3.org/Graphics/SVG/1.1/DTD/svg11.dtd">
<svg version="1.2" width="112.35mm" height="32.51mm" viewBox="2416 2400 11235 3251" preserveAspectRatio="xMidYMid" fill-rule="evenodd" stroke-width="28.222" stroke-linejoin="round" xmlns="http://www.w3.org/2000/svg" xmlns:ooo="http://xml.openoffice.org/svg/export" xmlns:xlink="http://www.w3.org/1999/xlink" xmlns:presentation="http://sun.com/xmlns/staroffice/presentation" xmlns:smil="http://www.w3.org/2001/SMIL20/" xmlns:anim="urn:oasis:names:tc:opendocument:xmlns:animation:1.0" xml:space="preserve">
 <defs class="EmbeddedBulletChars">
  <g id="bullet-char-template-57356" transform="scale(0.00048828125,-0.00048828125)">
   <path d="M 580,1141 L 1163,571 580,0 -4,571 580,1141 Z"/>
  </g>
  <g id="bullet-char-template-57354" transform="scale(0.00048828125,-0.00048828125)">
   <path d="M 8,1128 L 1137,1128 1137,0 8,0 8,1128 Z"/>
  </g>
  <g id="bullet-char-template-10146" transform="scale(0.00048828125,-0.00048828125)">
   <path d="M 174,0 L 602,739 174,1481 1456,739 174,0 Z M 1358,739 L 309,1346 659,739 1358,739 Z"/>
  </g>
  <g id="bullet-char-template-10132" transform="scale(0.00048828125,-0.00048828125)">
   <path d="M 2015,739 L 1276,0 717,0 1260,543 174,543 174,936 1260,936 717,1481 1274,1481 2015,739 Z"/>
  </g>
  <g id="bullet-char-template-10007" transform="scale(0.00048828125,-0.00048828125)">
   <path d="M 0,-2 C -7,14 -16,27 -25,37 L 356,567 C 262,823 215,952 215,954 215,979 228,992 255,992 264,992 276,990 289,987 310,991 331,999 354,1012 L 381,999 492,748 772,1049 836,1024 860,1049 C 881,1039 901,1025 922,1006 886,937 835,863 770,784 769,783 710,716 594,584 L 774,223 C 774,196 753,168 711,139 L 727,119 C 717,90 699,76 672,76 641,76 570,178 457,381 L 164,-76 C 142,-110 111,-127 72,-127 30,-127 9,-110 8,-76 1,-67 -2,-52 -2,-32 -2,-23 -1,-13 0,-2 Z"/>
  </g>
  <g id="bullet-char-template-10004" transform="scale(0.00048828125,-0.00048828125)">
   <path d="M 285,-33 C 182,-33 111,30 74,156 52,228 41,333 41,471 41,549 55,616 82,672 116,743 169,778 240,778 293,778 328,747 346,684 L 369,508 C 377,444 397,411 428,410 L 1163,1116 C 1174,1127 1196,1133 1229,1133 1271,1133 1292,1118 1292,1087 L 1292,965 C 1292,929 1282,901 1262,881 L 442,47 C 390,-6 338,-33 285,-33 Z"/>
  </g>
  <g id="bullet-char-template-9679" transform="scale(0.00048828125,-0.00048828125)">
   <path d="M 813,0 C 632,0 489,54 383,161 276,268 223,411 223,592 223,773 276,916 383,1023 489,1130 632,1184 813,1184 992,1184 1136,1130 1245,1023 1353,916 1407,772 1407,592 1407,412 1353,268 1245,161 1136,54 992,0 813,0 Z"/>
  </g>
  <g id="bullet-char-template-8226" transform="scale(0.00048828125,-0.00048828125)">
   <path d="M 346,457 C 273,457 209,483 155,535 101,586 74,649 74,723 74,796 101,859 155,911 209,963 273,989 346,989 419,989 480,963 531,910 582,859 608,796 608,723 608,648 583,586 532,535 482,483 420,457 346,457 Z"/>
  </g>
  <g id="bullet-char-template-8211" transform="scale(0.00048828125,-0.00048828125)">
   <path d="M -4,459 L 1135,459 1135,606 -4,606 -4,459 Z"/>
  </g>
  <g id="bullet-char-template-61548" transform="scale(0.00048828125,-0.00048828125)">
   <path d="M 173,740 C 173,903 231,1043 346,1159 462,1274 601,1332 765,1332 928,1332 1067,1274 1183,1159 1299,1043 1357,903 1357,740 1357,577 1299,437 1183,322 1067,206 928,148 765,148 601,148 462,206 346,322 231,437 173,577 173,740 Z"/>
  </g>
 </defs>
 <g class="Page">
  <g class="Group">
   <g class="com.sun.star.drawing.CustomShape">
    <g id="id3">
     <rect class="BoundingBox" stroke="none" fill="none" x="2416" y="2400" width="3201" height="3201"/>
     <path fill="rgb(248,248,248)" stroke="none" d="M 4016,5600 L 2416,5600 2416,2400 5616,2400 5616,5600 4016,5600 Z"/>
    </g>
   </g>
   <g class="Group">
    <g class="com.sun.star.drawing.LineShape">
     <g id="id4">
      <rect class="BoundingBox" stroke="none" fill="none" x="4015" y="2650" width="3" height="2702"/>
      <path fill="none" stroke="rgb(0,0,0)" d="M 4016,2651 L 4016,5350"/>
     </g>
    </g>
    <g class="com.sun.star.drawing.LineShape">
     <g id="id5">
      <rect class="BoundingBox" stroke="none" fill="none" x="2696" y="4000" width="2642" height="3"/>
      <path fill="none" stroke="rgb(0,0,0)" d="M 5336,4001 L 2697,4001"/>
     </g>
    </g>
    <g class="com.sun.star.drawing.CustomShape">
     <g id="id6">
      <rect class="BoundingBox" stroke="none" fill="none" x="3624" y="3603" width="785" height="804"/>
      <path fill="rgb(179,244,171)" stroke="none" d="M 4407,4005 C 4407,4075 4389,4144 4355,4205 4320,4266 4271,4316 4212,4351 4152,4386 4085,4405 4016,4405 3947,4405 3880,4386 3821,4351 3761,4316 3712,4266 3677,4205 3643,4144 3625,4075 3625,4005 3625,3934 3643,3865 3677,3804 3712,3743 3761,3693 3821,3658 3880,3623 3947,3604 4016,3604 4085,3604 4152,3623 4212,3658 4271,3693 4320,3743 4355,3804 4389,3865 4407,3934 4407,4004 L 4407,4005 Z"/>
      <path fill="none" stroke="rgb(128,128,128)" d="M 4407,4005 C 4407,4075 4389,4144 4355,4205 4320,4266 4271,4316 4212,4351 4152,4386 4085,4405 4016,4405 3947,4405 3880,4386 3821,4351 3761,4316 3712,4266 3677,4205 3643,4144 3625,4075 3625,4005 3625,3934 3643,3865 3677,3804 3712,3743 3761,3693 3821,3658 3880,3623 3947,3604 4016,3604 4085,3604 4152,3623 4212,3658 4271,3693 4320,3743 4355,3804 4389,3865 4407,3934 4407,4004 L 4407,4005 Z"/>
     </g>
    </g>
   </g>
  </g>
  <g class="Group">
   <g class="com.sun.star.drawing.CustomShape">
    <g id="id7">
     <rect class="BoundingBox" stroke="none" fill="none" x="6434" y="2450" width="3201" height="3201"/>
     <path fill="rgb(248,248,248)" stroke="none" d="M 8034,5650 L 6434,5650 6434,2450 9634,2450 9634,5650 8034,5650 Z"/>
    </g>
   </g>
   <g class="Group">
    <g class="com.sun.star.drawing.LineShape">
     <g id="id8">
      <rect class="BoundingBox" stroke="none" fill="none" x="8032" y="2697" width="3" height="2702"/>
      <path fill="none" stroke="rgb(0,0,0)" d="M 8033,2698 L 8033,5397"/>
     </g>
    </g>
    <g class="com.sun.star.drawing.LineShape">
     <g id="id9">
      <rect class="BoundingBox" stroke="none" fill="none" x="9205" y="2697" width="3" height="2702"/>
      <path fill="none" stroke="rgb(0,0,0)" d="M 9206,2698 L 9206,5397"/>
     </g>
    </g>
    <g class="com.sun.star.drawing.LineShape">
     <g id="id10">
      <rect class="BoundingBox" stroke="none" fill="none" x="6713" y="2847" width="2642" height="3"/>
      <path fill="none" stroke="rgb(0,0,0)" d="M 9353,2848 L 6714,2848"/>
     </g>
    </g>
    <g class="com.sun.star.drawing.LineShape">
     <g id="id11">
      <rect class="BoundingBox" stroke="none" fill="none" x="6859" y="2697" width="3" height="2702"/>
      <path fill="none" stroke="rgb(0,0,0)" d="M 6860,2698 L 6860,5397"/>
     </g>
    </g>
    <g class="com.sun.star.drawing.LineShape">
     <g id="id12">
      <rect class="BoundingBox" stroke="none" fill="none" x="6713" y="4047" width="2642" height="3"/>
      <path fill="none" stroke="rgb(0,0,0)" d="M 9353,4048 L 6714,4048"/>
     </g>
    </g>
    <g class="com.sun.star.drawing.LineShape">
     <g id="id13">
      <rect class="BoundingBox" stroke="none" fill="none" x="6713" y="5248" width="2642" height="3"/>
      <path fill="none" stroke="rgb(0,0,0)" d="M 9353,5249 L 6714,5249"/>
     </g>
    </g>
    <g class="com.sun.star.drawing.CustomShape">
     <g id="id14">
      <rect class="BoundingBox" stroke="none" fill="none" x="6566" y="2548" width="591" height="604"/>
      <path fill="rgb(70,240,49)" stroke="none" d="M 7155,2850 C 7155,2902 7141,2954 7116,3000 7090,3045 7053,3083 7008,3110 6963,3136 6913,3150 6861,3150 6809,3150 6759,3136 6714,3110 6669,3083 6632,3045 6606,3000 6581,2954 6567,2902 6567,2850 6567,2797 6581,2745 6606,2699 6632,2654 6669,2616 6714,2589 6759,2563 6809,2549 6861,2549 6913,2549 6963,2563 7008,2589 7053,2616 7090,2654 7116,2699 7141,2745 7155,2797 7155,2850 L 7155,2850 Z"/>
      <path fill="none" stroke="rgb(128,128,128)" d="M 7155,2850 C 7155,2902 7141,2954 7116,3000 7090,3045 7053,3083 7008,3110 6963,3136 6913,3150 6861,3150 6809,3150 6759,3136 6714,3110 6669,3083 6632,3045 6606,3000 6581,2954 6567,2902 6567,2850 6567,2797 6581,2745 6606,2699 6632,2654 6669,2616 6714,2589 6759,2563 6809,2549 6861,2549 6913,2549 6963,2563 7008,2589 7053,2616 7090,2654 7116,2699 7141,2745 7155,2797 7155,2850 Z"/>
     </g>
    </g>
    <g class="com.sun.star.drawing.CustomShape">
     <g id="id15">
      <rect class="BoundingBox" stroke="none" fill="none" x="7739" y="2548" width="592" height="604"/>
      <path fill="rgb(70,240,49)" stroke="none" d="M 8329,2850 C 8329,2902 8315,2954 8290,3000 8264,3045 8227,3083 8182,3110 8137,3136 8086,3150 8035,3150 7983,3150 7932,3136 7887,3110 7842,3083 7805,3045 7779,3000 7754,2954 7740,2902 7740,2850 7740,2797 7754,2745 7779,2699 7805,2654 7842,2616 7887,2589 7932,2563 7983,2549 8035,2549 8086,2549 8137,2563 8182,2589 8227,2616 8264,2654 8290,2699 8315,2745 8329,2797 8329,2850 L 8329,2850 Z"/>
      <path fill="none" stroke="rgb(128,128,128)" d="M 8329,2850 C 8329,2902 8315,2954 8290,3000 8264,3045 8227,3083 8182,3110 8137,3136 8086,3150 8035,3150 7983,3150 7932,3136 7887,3110 7842,3083 7805,3045 7779,3000 7754,2954 7740,2902 7740,2850 7740,2797 7754,2745 7779,2699 7805,2654 7842,2616 7887,2589 7932,2563 7983,2549 8035,2549 8086,2549 8137,2563 8182,2589 8227,2616 8264,2654 8290,2699 8315,2745 8329,2797 8329,2850 Z"/>
     </g>
    </g>
    <g class="com.sun.star.drawing.CustomShape">
     <g id="id16">
      <rect class="BoundingBox" stroke="none" fill="none" x="8914" y="2548" width="590" height="604"/>
      <path fill="rgb(70,240,49)" stroke="none" d="M 9502,2850 C 9502,2902 9488,2954 9463,3000 9437,3045 9400,3083 9355,3110 9311,3136 9260,3150 9209,3150 9157,3150 9106,3136 9062,3110 9017,3083 8980,3045 8954,3000 8929,2954 8915,2902 8915,2850 8915,2797 8929,2745 8954,2699 8980,2654 9017,2616 9062,2589 9106,2563 9157,2549 9209,2549 9260,2549 9311,2563 9355,2589 9400,2616 9437,2654 9463,2699 9488,2745 9502,2797 9502,2850 L 9502,2850 Z"/>
      <path fill="none" stroke="rgb(128,128,128)" d="M 9502,2850 C 9502,2902 9488,2954 9463,3000 9437,3045 9400,3083 9355,3110 9311,3136 9260,3150 9209,3150 9157,3150 9106,3136 9062,3110 9017,3083 8980,3045 8954,3000 8929,2954 8915,2902 8915,2850 8915,2797 8929,2745 8954,2699 8980,2654 9017,2616 9062,2589 9106,2563 9157,2549 9209,2549 9260,2549 9311,2563 9355,2589 9400,2616 9437,2654 9463,2699 9488,2745 9502,2797 9502,2850 Z"/>
     </g>
    </g>
    <g class="com.sun.star.drawing.CustomShape">
     <g id="id17">
      <rect class="BoundingBox" stroke="none" fill="none" x="6566" y="3796" width="591" height="605"/>
      <path fill="rgb(70,240,49)" stroke="none" d="M 7155,4098 C 7155,4151 7141,4203 7116,4249 7090,4294 7053,4332 7008,4359 6963,4385 6913,4399 6861,4399 6809,4399 6759,4385 6714,4359 6669,4332 6632,4294 6606,4249 6581,4203 6567,4151 6567,4098 6567,4045 6581,3993 6606,3948 6632,3902 6669,3864 6714,3837 6759,3811 6809,3797 6861,3797 6913,3797 6963,3811 7008,3837 7053,3864 7090,3902 7116,3947 7141,3993 7155,4045 7155,4098 L 7155,4098 Z"/>
      <path fill="none" stroke="rgb(128,128,128)" d="M 7155,4098 C 7155,4151 7141,4203 7116,4249 7090,4294 7053,4332 7008,4359 6963,4385 6913,4399 6861,4399 6809,4399 6759,4385 6714,4359 6669,4332 6632,4294 6606,4249 6581,4203 6567,4151 6567,4098 6567,4045 6581,3993 6606,3948 6632,3902 6669,3864 6714,3837 6759,3811 6809,3797 6861,3797 6913,3797 6963,3811 7008,3837 7053,3864 7090,3902 7116,3947 7141,3993 7155,4045 7155,4098 Z"/>
     </g>
    </g>
    <g class="com.sun.star.drawing.CustomShape">
     <g id="id18">
      <rect class="BoundingBox" stroke="none" fill="none" x="7739" y="3747" width="592" height="603"/>
      <path fill="rgb(179,244,171)" stroke="none" d="M 8329,4048 C 8329,4101 8315,4152 8290,4198 8264,4244 8227,4281 8182,4308 8137,4334 8086,4348 8035,4348 7983,4348 7932,4334 7887,4308 7842,4281 7805,4244 7779,4198 7754,4152 7740,4101 7740,4048 7740,3995 7754,3944 7779,3898 7805,3852 7842,3815 7887,3788 7932,3762 7983,3748 8035,3748 8086,3748 8137,3762 8182,3788 8227,3815 8264,3852 8290,3898 8315,3944 8329,3995 8329,4048 L 8329,4048 Z"/>
      <path fill="none" stroke="rgb(128,128,128)" d="M 8329,4048 C 8329,4101 8315,4152 8290,4198 8264,4244 8227,4281 8182,4308 8137,4334 8086,4348 8035,4348 7983,4348 7932,4334 7887,4308 7842,4281 7805,4244 7779,4198 7754,4152 7740,4101 7740,4048 7740,3995 7754,3944 7779,3898 7805,3852 7842,3815 7887,3788 7932,3762 7983,3748 8035,3748 8086,3748 8137,3762 8182,3788 8227,3815 8264,3852 8290,3898 8315,3944 8329,3995 8329,4048 L 8329,4048 Z"/>
     </g>
    </g>
    <g class="com.sun.star.drawing.CustomShape">
     <g id="id19">
      <rect class="BoundingBox" stroke="none" fill="none" x="8914" y="3747" width="590" height="603"/>
      <path fill="rgb(70,240,49)" stroke="none" d="M 9502,4048 C 9502,4101 9488,4152 9463,4198 9437,4244 9400,4281 9355,4308 9311,4334 9260,4348 9209,4348 9157,4348 9106,4334 9062,4308 9017,4281 8980,4244 8954,4198 8929,4152 8915,4101 8915,4048 8915,3995 8929,3944 8954,3898 8980,3852 9017,3815 9062,3788 9106,3762 9157,3748 9209,3748 9260,3748 9311,3762 9355,3788 9400,3815 9437,3852 9463,3898 9488,3944 9502,3995 9502,4048 L 9502,4048 Z"/>
      <path fill="none" stroke="rgb(128,128,128)" d="M 9502,4048 C 9502,4101 9488,4152 9463,4198 9437,4244 9400,4281 9355,4308 9311,4334 9260,4348 9209,4348 9157,4348 9106,4334 9062,4308 9017,4281 8980,4244 8954,4198 8929,4152 8915,4101 8915,4048 8915,3995 8929,3944 8954,3898 8980,3852 9017,3815 9062,3788 9106,3762 9157,3748 9209,3748 9260,3748 9311,3762 9355,3788 9400,3815 9437,3852 9463,3898 9488,3944 9502,3995 9502,4048 L 9502,4048 Z"/>
     </g>
    </g>
    <g class="com.sun.star.drawing.CustomShape">
     <g id="id20">
      <rect class="BoundingBox" stroke="none" fill="none" x="6566" y="4947" width="591" height="604"/>
      <path fill="rgb(70,240,49)" stroke="none" d="M 7155,5249 C 7155,5301 7141,5353 7116,5399 7090,5444 7053,5482 7008,5509 6963,5535 6913,5549 6861,5549 6809,5549 6759,5535 6714,5509 6669,5482 6632,5444 6606,5399 6581,5353 6567,5301 6567,5249 6567,5196 6581,5144 6606,5098 6632,5053 6669,5015 6714,4988 6759,4962 6809,4948 6861,4948 6913,4948 6963,4962 7008,4988 7053,5015 7090,5053 7116,5098 7141,5144 7155,5196 7155,5249 L 7155,5249 Z"/>
      <path fill="none" stroke="rgb(128,128,128)" d="M 7155,5249 C 7155,5301 7141,5353 7116,5399 7090,5444 7053,5482 7008,5509 6963,5535 6913,5549 6861,5549 6809,5549 6759,5535 6714,5509 6669,5482 6632,5444 6606,5399 6581,5353 6567,5301 6567,5249 6567,5196 6581,5144 6606,5098 6632,5053 6669,5015 6714,4988 6759,4962 6809,4948 6861,4948 6913,4948 6963,4962 7008,4988 7053,5015 7090,5053 7116,5098 7141,5144 7155,5196 7155,5249 Z"/>
     </g>
    </g>
    <g class="com.sun.star.drawing.CustomShape">
     <g id="id21">
      <rect class="BoundingBox" stroke="none" fill="none" x="7762" y="4951" width="590" height="604"/>
      <path fill="rgb(70,240,49)" stroke="none" d="M 8350,5253 C 8350,5305 8336,5357 8311,5403 8285,5448 8248,5486 8203,5513 8159,5539 8108,5553 8057,5553 8005,5553 7954,5539 7910,5513 7865,5486 7828,5448 7802,5403 7777,5357 7763,5305 7763,5253 7763,5200 7777,5148 7802,5102 7828,5057 7865,5019 7910,4992 7954,4966 8005,4952 8057,4952 8108,4952 8159,4966 8203,4992 8248,5019 8285,5057 8311,5102 8336,5148 8350,5200 8350,5253 L 8350,5253 Z"/>
      <path fill="none" stroke="rgb(128,128,128)" d="M 8350,5253 C 8350,5305 8336,5357 8311,5403 8285,5448 8248,5486 8203,5513 8159,5539 8108,5553 8057,5553 8005,5553 7954,5539 7910,5513 7865,5486 7828,5448 7802,5403 7777,5357 7763,5305 7763,5253 7763,5200 7777,5148 7802,5102 7828,5057 7865,5019 7910,4992 7954,4966 8005,4952 8057,4952 8108,4952 8159,4966 8203,4992 8248,5019 8285,5057 8311,5102 8336,5148 8350,5200 8350,5253 Z"/>
     </g>
    </g>
    <g class="com.sun.star.drawing.CustomShape">
     <g id="id22">
      <rect class="BoundingBox" stroke="none" fill="none" x="8914" y="4947" width="590" height="604"/>
      <path fill="rgb(70,240,49)" stroke="none" d="M 9502,5249 C 9502,5301 9488,5353 9463,5399 9437,5444 9400,5482 9355,5509 9311,5535 9260,5549 9209,5549 9157,5549 9106,5535 9062,5509 9017,5482 8980,5444 8954,5399 8929,5353 8915,5301 8915,5249 8915,5196 8929,5144 8954,5098 8980,5053 9017,5015 9062,4988 9106,4962 9157,4948 9209,4948 9260,4948 9311,4962 9355,4988 9400,5015 9437,5053 9463,5098 9488,5144 9502,5196 9502,5249 L 9502,5249 Z"/>
      <path fill="none" stroke="rgb(128,128,128)" d="M 9502,5249 C 9502,5301 9488,5353 9463,5399 9437,5444 9400,5482 9355,5509 9311,5535 9260,5549 9209,5549 9157,5549 9106,5535 9062,5509 9017,5482 8980,5444 8954,5399 8929,5353 8915,5301 8915,5249 8915,5196 8929,5144 8954,5098 8980,5053 9017,5015 9062,4988 9106,4962 9157,4948 9209,4948 9260,4948 9311,4962 9355,4988 9400,5015 9437,5053 9463,5098 9488,5144 9502,5196 9502,5249 Z"/>
     </g>
    </g>
   </g>
  </g>
  <g class="Group">
   <g class="com.sun.star.drawing.CustomShape">
    <g id="id23">
     <rect class="BoundingBox" stroke="none" fill="none" x="10450" y="2400" width="3201" height="3201"/>
     <path fill="rgb(248,248,248)" stroke="none" d="M 12050,5600 L 10450,5600 10450,2400 13650,2400 13650,5600 12050,5600 Z"/>
    </g>
   </g>
   <g class="Group">
    <g class="com.sun.star.drawing.CustomShape">
     <g id="id24">
      <rect class="BoundingBox" stroke="none" fill="none" x="11170" y="3101" width="1765" height="1802"/>
      <path fill="rgb(246,255,89)" stroke="none" d="M 12933,4002 C 12933,4159 12892,4315 12815,4451 12738,4588 12626,4702 12493,4780 12359,4859 12207,4901 12052,4901 11897,4901 11745,4859 11612,4780 11478,4702 11366,4588 11289,4451 11212,4315 11171,4159 11171,4002 11171,3844 11212,3688 11289,3552 11366,3415 11478,3301 11612,3223 11745,3144 11897,3102 12052,3102 12207,3102 12359,3144 12493,3223 12626,3301 12738,3415 12815,3552 12892,3688 12933,3844 12933,4001 L 12933,4002 Z"/>
      <path fill="none" stroke="rgb(128,128,128)" d="M 12933,4002 C 12933,4159 12892,4315 12815,4451 12738,4588 12626,4702 12493,4780 12359,4859 12207,4901 12052,4901 11897,4901 11745,4859 11612,4780 11478,4702 11366,4588 11289,4451 11212,4315 11171,4159 11171,4002 11171,3844 11212,3688 11289,3552 11366,3415 11478,3301 11612,3223 11745,3144 11897,3102 12052,3102 12207,3102 12359,3144 12493,3223 12626,3301 12738,3415 12815,3552 12892,3688 12933,3844 12933,4001 L 12933,4002 Z"/>
     </g>
    </g>
    <g class="com.sun.star.drawing.LineShape">
     <g id="id25">
      <rect class="BoundingBox" stroke="none" fill="none" x="12048" y="2649" width="3" height="2702"/>
      <path fill="none" stroke="rgb(0,0,0)" d="M 12049,2650 L 12049,5349"/>
     </g>
    </g>
    <g class="com.sun.star.drawing.LineShape">
     <g id="id26">
      <rect class="BoundingBox" stroke="none" fill="none" x="13221" y="2649" width="3" height="2702"/>
      <path fill="none" stroke="rgb(0,0,0)" d="M 13222,2650 L 13222,5349"/>
     </g>
    </g>
    <g class="com.sun.star.drawing.LineShape">
     <g id="id27">
      <rect class="BoundingBox" stroke="none" fill="none" x="10729" y="2799" width="2642" height="3"/>
      <path fill="none" stroke="rgb(0,0,0)" d="M 13369,2800 L 10730,2800"/>
     </g>
    </g>
    <g class="com.sun.star.drawing.LineShape">
     <g id="id28">
      <rect class="BoundingBox" stroke="none" fill="none" x="10875" y="2649" width="3" height="2702"/>
      <path fill="none" stroke="rgb(0,0,0)" d="M 10876,2650 L 10876,5349"/>
     </g>
    </g>
    <g class="com.sun.star.drawing.CustomShape">
     <g id="id29">
      <rect class="BoundingBox" stroke="none" fill="none" x="10581" y="2500" width="591" height="604"/>
      <path fill="rgb(179,244,171)" stroke="none" d="M 11170,2802 C 11170,2854 11156,2906 11131,2952 11105,2997 11068,3035 11023,3062 10978,3088 10928,3102 10876,3102 10824,3102 10774,3088 10729,3062 10684,3035 10647,2997 10621,2952 10596,2906 10582,2854 10582,2802 10582,2749 10596,2697 10621,2651 10647,2606 10684,2568 10729,2541 10774,2515 10824,2501 10876,2501 10928,2501 10978,2515 11023,2541 11068,2568 11105,2606 11131,2651 11156,2697 11170,2749 11170,2801 L 11170,2802 Z"/>
      <path fill="none" stroke="rgb(128,128,128)" d="M 11170,2802 C 11170,2854 11156,2906 11131,2952 11105,2997 11068,3035 11023,3062 10978,3088 10928,3102 10876,3102 10824,3102 10774,3088 10729,3062 10684,3035 10647,2997 10621,2952 10596,2906 10582,2854 10582,2802 10582,2749 10596,2697 10621,2651 10647,2606 10684,2568 10729,2541 10774,2515 10824,2501 10876,2501 10928,2501 10978,2515 11023,2541 11068,2568 11105,2606 11131,2651 11156,2697 11170,2749 11170,2801 L 11170,2802 Z"/>
     </g>
    </g>
    <g class="com.sun.star.drawing.CustomShape">
     <g id="id30">
      <rect class="BoundingBox" stroke="none" fill="none" x="11755" y="2500" width="592" height="604"/>
      <path fill="rgb(179,244,171)" stroke="none" d="M 12345,2802 C 12345,2854 12331,2906 12306,2952 12280,2997 12243,3035 12198,3062 12153,3088 12102,3102 12051,3102 11999,3102 11948,3088 11903,3062 11858,3035 11821,2997 11795,2952 11770,2906 11756,2854 11756,2802 11756,2749 11770,2697 11795,2651 11821,2606 11858,2568 11903,2541 11948,2515 11999,2501 12051,2501 12102,2501 12153,2515 12198,2541 12243,2568 12280,2606 12306,2651 12331,2697 12345,2749 12345,2801 L 12345,2802 Z"/>
      <path fill="none" stroke="rgb(128,128,128)" d="M 12345,2802 C 12345,2854 12331,2906 12306,2952 12280,2997 12243,3035 12198,3062 12153,3088 12102,3102 12051,3102 11999,3102 11948,3088 11903,3062 11858,3035 11821,2997 11795,2952 11770,2906 11756,2854 11756,2802 11756,2749 11770,2697 11795,2651 11821,2606 11858,2568 11903,2541 11948,2515 11999,2501 12051,2501 12102,2501 12153,2515 12198,2541 12243,2568 12280,2606 12306,2651 12331,2697 12345,2749 12345,2801 L 12345,2802 Z"/>
     </g>
    </g>
    <g class="com.sun.star.drawing.CustomShape">
     <g id="id31">
      <rect class="BoundingBox" stroke="none" fill="none" x="12928" y="2500" width="592" height="604"/>
      <path fill="rgb(179,244,171)" stroke="none" d="M 13518,2802 C 13518,2854 13504,2906 13479,2952 13453,2997 13416,3035 13371,3062 13326,3088 13275,3102 13224,3102 13172,3102 13121,3088 13076,3062 13031,3035 12994,2997 12968,2952 12943,2906 12929,2854 12929,2802 12929,2749 12943,2697 12968,2651 12994,2606 13031,2568 13076,2541 13121,2515 13172,2501 13224,2501 13275,2501 13326,2515 13371,2541 13416,2568 13453,2606 13479,2651 13504,2697 13518,2749 13518,2801 L 13518,2802 Z"/>
      <path fill="none" stroke="rgb(128,128,128)" d="M 13518,2802 C 13518,2854 13504,2906 13479,2952 13453,2997 13416,3035 13371,3062 13326,3088 13275,3102 13224,3102 13172,3102 13121,3088 13076,3062 13031,3035 12994,2997 12968,2952 12943,2906 12929,2854 12929,2802 12929,2749 12943,2697 12968,2651 12994,2606 13031,2568 13076,2541 13121,2515 13172,2501 13224,2501 13275,2501 13326,2515 13371,2541 13416,2568 13453,2606 13479,2651 13504,2697 13518,2749 13518,2801 L 13518,2802 Z"/>
     </g>
    </g>
    <g class="com.sun.star.drawing.LineShape">
     <g id="id32">
      <rect class="BoundingBox" stroke="none" fill="none" x="10729" y="3999" width="2642" height="3"/>
      <path fill="none" stroke="rgb(0,0,0)" d="M 13369,4000 L 10730,4000"/>
     </g>
    </g>
    <g class="com.sun.star.drawing.CustomShape">
     <g id="id33">
      <rect class="BoundingBox" stroke="none" fill="none" x="10581" y="3699" width="591" height="603"/>
      <path fill="rgb(179,244,171)" stroke="none" d="M 11170,4000 C 11170,4053 11156,4104 11131,4150 11105,4196 11068,4233 11023,4260 10978,4286 10928,4300 10876,4300 10824,4300 10774,4286 10729,4260 10684,4233 10647,4196 10621,4150 10596,4104 10582,4053 10582,4000 10582,3947 10596,3896 10621,3850 10647,3804 10684,3767 10729,3740 10774,3714 10824,3700 10876,3700 10928,3700 10978,3714 11023,3740 11068,3767 11105,3804 11131,3850 11156,3896 11170,3947 11170,4000 L 11170,4000 Z"/>
      <path fill="none" stroke="rgb(128,128,128)" d="M 11170,4000 C 11170,4053 11156,4104 11131,4150 11105,4196 11068,4233 11023,4260 10978,4286 10928,4300 10876,4300 10824,4300 10774,4286 10729,4260 10684,4233 10647,4196 10621,4150 10596,4104 10582,4053 10582,4000 10582,3947 10596,3896 10621,3850 10647,3804 10684,3767 10729,3740 10774,3714 10824,3700 10876,3700 10928,3700 10978,3714 11023,3740 11068,3767 11105,3804 11131,3850 11156,3896 11170,3947 11170,4000 L 11170,4000 Z"/>
     </g>
    </g>
    <g class="com.sun.star.drawing.CustomShape">
     <g id="id34">
      <rect class="BoundingBox" stroke="none" fill="none" x="11755" y="3699" width="592" height="603"/>
      <path fill="rgb(255,184,40)" stroke="none" d="M 12345,4000 C 12345,4053 12331,4104 12306,4150 12280,4196 12243,4233 12198,4260 12153,4286 12102,4300 12051,4300 11999,4300 11948,4286 11903,4260 11858,4233 11821,4196 11795,4150 11770,4104 11756,4053 11756,4000 11756,3947 11770,3896 11795,3850 11821,3804 11858,3767 11903,3740 11948,3714 11999,3700 12051,3700 12102,3700 12153,3714 12198,3740 12243,3767 12280,3804 12306,3850 12331,3896 12345,3947 12345,4000 L 12345,4000 Z"/>
      <path fill="none" stroke="rgb(128,128,128)" d="M 12345,4000 C 12345,4053 12331,4104 12306,4150 12280,4196 12243,4233 12198,4260 12153,4286 12102,4300 12051,4300 11999,4300 11948,4286 11903,4260 11858,4233 11821,4196 11795,4150 11770,4104 11756,4053 11756,4000 11756,3947 11770,3896 11795,3850 11821,3804 11858,3767 11903,3740 11948,3714 11999,3700 12051,3700 12102,3700 12153,3714 12198,3740 12243,3767 12280,3804 12306,3850 12331,3896 12345,3947 12345,4000 L 12345,4000 Z"/>
     </g>
    </g>
    <g class="com.sun.star.drawing.CustomShape">
     <g id="id35">
      <rect class="BoundingBox" stroke="none" fill="none" x="12928" y="3699" width="592" height="603"/>
      <path fill="rgb(179,244,171)" stroke="none" d="M 13518,4000 C 13518,4053 13504,4104 13479,4150 13453,4196 13416,4233 13371,4260 13326,4286 13275,4300 13224,4300 13172,4300 13121,4286 13076,4260 13031,4233 12994,4196 12968,4150 12943,4104 12929,4053 12929,4000 12929,3947 12943,3896 12968,3850 12994,3804 13031,3767 13076,3740 13121,3714 13172,3700 13224,3700 13275,3700 13326,3714 13371,3740 13416,3767 13453,3804 13479,3850 13504,3896 13518,3947 13518,4000 L 13518,4000 Z"/>
      <path fill="none" stroke="rgb(128,128,128)" d="M 13518,4000 C 13518,4053 13504,4104 13479,4150 13453,4196 13416,4233 13371,4260 13326,4286 13275,4300 13224,4300 13172,4300 13121,4286 13076,4260 13031,4233 12994,4196 12968,4150 12943,4104 12929,4053 12929,4000 12929,3947 12943,3896 12968,3850 12994,3804 13031,3767 13076,3740 13121,3714 13172,3700 13224,3700 13275,3700 13326,3714 13371,3740 13416,3767 13453,3804 13479,3850 13504,3896 13518,3947 13518,4000 L 13518,4000 Z"/>
     </g>
    </g>
    <g class="com.sun.star.drawing.LineShape">
     <g id="id36">
      <rect class="BoundingBox" stroke="none" fill="none" x="10729" y="5198" width="2642" height="3"/>
      <path fill="none" stroke="rgb(0,0,0)" d="M 13369,5199 L 10730,5199"/>
     </g>
    </g>
    <g class="com.sun.star.drawing.CustomShape">
     <g id="id37">
      <rect class="BoundingBox" stroke="none" fill="none" x="10581" y="4899" width="591" height="604"/>
      <path fill="rgb(179,244,171)" stroke="none" d="M 11170,5201 C 11170,5253 11156,5305 11131,5351 11105,5396 11068,5434 11023,5461 10978,5487 10928,5501 10876,5501 10824,5501 10774,5487 10729,5461 10684,5434 10647,5396 10621,5351 10596,5305 10582,5253 10582,5201 10582,5148 10596,5096 10621,5050 10647,5005 10684,4967 10729,4940 10774,4914 10824,4900 10876,4900 10928,4900 10978,4914 11023,4940 11068,4967 11105,5005 11131,5050 11156,5096 11170,5148 11170,5201 L 11170,5201 Z"/>
      <path fill="none" stroke="rgb(128,128,128)" d="M 11170,5201 C 11170,5253 11156,5305 11131,5351 11105,5396 11068,5434 11023,5461 10978,5487 10928,5501 10876,5501 10824,5501 10774,5487 10729,5461 10684,5434 10647,5396 10621,5351 10596,5305 10582,5253 10582,5201 10582,5148 10596,5096 10621,5050 10647,5005 10684,4967 10729,4940 10774,4914 10824,4900 10876,4900 10928,4900 10978,4914 11023,4940 11068,4967 11105,5005 11131,5050 11156,5096 11170,5148 11170,5201 Z"/>
     </g>
    </g>
    <g class="com.sun.star.drawing.CustomShape">
     <g id="id38">
      <rect class="BoundingBox" stroke="none" fill="none" x="11755" y="4899" width="592" height="604"/>
      <path fill="rgb(179,244,171)" stroke="none" d="M 12345,5201 C 12345,5253 12331,5305 12306,5351 12280,5396 12243,5434 12198,5461 12153,5487 12102,5501 12051,5501 11999,5501 11948,5487 11903,5461 11858,5434 11821,5396 11795,5351 11770,5305 11756,5253 11756,5201 11756,5148 11770,5096 11795,5050 11821,5005 11858,4967 11903,4940 11948,4914 11999,4900 12051,4900 12102,4900 12153,4914 12198,4940 12243,4967 12280,5005 12306,5050 12331,5096 12345,5148 12345,5201 L 12345,5201 Z"/>
      <path fill="none" stroke="rgb(128,128,128)" d="M 12345,5201 C 12345,5253 12331,5305 12306,5351 12280,5396 12243,5434 12198,5461 12153,5487 12102,5501 12051,5501 11999,5501 11948,5487 11903,5461 11858,5434 11821,5396 11795,5351 11770,5305 11756,5253 11756,5201 11756,5148 11770,5096 11795,5050 11821,5005 11858,4967 11903,4940 11948,4914 11999,4900 12051,4900 12102,4900 12153,4914 12198,4940 12243,4967 12280,5005 12306,5050 12331,5096 12345,5148 12345,5201 Z"/>
     </g>
    </g>
    <g class="com.sun.star.drawing.CustomShape">
     <g id="id39">
      <rect class="BoundingBox" stroke="none" fill="none" x="12928" y="4899" width="592" height="604"/>
      <path fill="rgb(179,244,171)" stroke="none" d="M 13518,5201 C 13518,5253 13504,5305 13479,5351 13453,5396 13416,5434 13371,5461 13326,5487 13275,5501 13224,5501 13172,5501 13121,5487 13076,5461 13031,5434 12994,5396 12968,5351 12943,5305 12929,5253 12929,5201 12929,5148 12943,5096 12968,5050 12994,5005 13031,4967 13076,4940 13121,4914 13172,4900 13224,4900 13275,4900 13326,4914 13371,4940 13416,4967 13453,5005 13479,5050 13504,5096 13518,5148 13518,5201 L 13518,5201 Z"/>
      <path fill="none" stroke="rgb(128,128,128)" d="M 13518,5201 C 13518,5253 13504,5305 13479,5351 13453,5396 13416,5434 13371,5461 13326,5487 13275,5501 13224,5501 13172,5501 13121,5487 13076,5461 13031,5434 12994,5396 12968,5351 12943,5305 12929,5253 12929,5201 12929,5148 12943,5096 12968,5050 12994,5005 13031,4967 13076,4940 13121,4914 13172,4900 13224,4900 13275,4900 13326,4914 13371,4940 13416,4967 13453,5005 13479,5050 13504,5096 13518,5148 13518,5201 Z"/>
     </g>
    </g>
    <g class="com.sun.star.drawing.LineShape">
     <g id="id40">
      <rect class="BoundingBox" stroke="none" fill="none" x="12052" y="4000" width="624" height="639"/>
      <path fill="none" stroke="rgb(0,0,0)" d="M 12053,4001 L 12574,4535"/>
      <path fill="rgb(0,0,0)" stroke="none" d="M 12675,4637 L 12605,4495 12534,4565 12675,4637 Z"/>
     </g>
    </g>
   </g>
  </g>
 </g>
</svg>