<?xml version="1.0" encoding="UTF-8"?>
<!DOCTYPE svg PUBLIC "-//W3C//DTD SVG 1.1//EN" "http://www.w3.org/Graphics/SVG/1.1/DTD/svg11.dtd">
<svg version="1.2" width="112.17mm" height="32.5mm" viewBox="2400 6400 11217 3250" preserveAspectRatio="xMidYMid" fill-rule="evenodd" stroke-width="28.222" stroke-linejoin="round" xmlns="http://www.w3.org/2000/svg" xmlns:ooo="http://xml.openoffice.org/svg/export" xmlns:xlink="http://www.w3.org/1999/xlink" xmlns:presentation="http://sun.com/xmlns/staroffice/presentation" xmlns:smil="http://www.w3.org/2001/SMIL20/" xmlns:anim="urn:oasis:names:tc:opendocument:xmlns:animation:1.0" xml:space="preserve">
 <defs class="EmbeddedBulletChars">
  <g id="bullet-char-template-57356" transform="scale(0.00048828125,-0.00048828125)">
   <path d="M 580,1141 L 1163,571 580,0 -4,571 580,1141 Z"/>
  </g>
  <g id="bullet-char-template-57354" transform="scale(0.00048828125,-0.00048828125)">
   <path d="M 8,1128 L 1137,1128 1137,0 8,0 8,1128 Z"/>
  </g>
  <g id="bullet-char-template-10146" transform="scale(0.00048828125,-0.00048828125)">
   <path d="M 174,0 L 602,739 174,1481 1456,739 174,0 Z M 1358,739 L 309,1346 659,739 1358,739 Z"/>
  </g>
  <g id="bullet-char-template-10132" transform="scale(0.00048828125,-0.00048828125)">
   <path d="M 2015,739 L 1276,0 717,0 1260,543 174,543 174,936 1260,936 717,1481 1274,1481 2015,739 Z"/>
  </g>
  <g id="bullet-char-template-10007" transform="scale(0.00048828125,-0.00048828125)">
   <path d="M 0,-2 C -7,14 -16,27 -25,37 L 356,567 C 262,823 215,952 215,954 215,979 228,992 255,992 264,992 276,990 289,987 310,991 331,999 354,1012 L 381,999 492,748 772,1049 836,1024 860,1049 C 881,1039 901,1025 922,1006 886,937 835,863 770,784 769,783 710,716 594,584 L 774,223 C 774,196 753,168 711,139 L 727,119 C 717,90 699,76 672,76 641,76 570,178 457,381 L 164,-76 C 142,-110 111,-127 72,-127 30,-127 9,-110 8,-76 1,-67 -2,-52 -2,-32 -2,-23 -1,-13 0,-2 Z"/>
  </g>
  <g id="bullet-char-template-10004" transform="scale(0.00048828125,-0.00048828125)">
   <path d="M 285,-33 C 182,-33 111,30 74,156 52,228 41,333 41,471 41,549 55,616 82,672 116,743 169,778 240,778 293,778 328,747 346,684 L 369,508 C 377,444 397,411 428,410 L 1163,1116 C 1174,1127 1196,1133 1229,1133 1271,1133 1292,1118 1292,1087 L 1292,965 C 1292,929 1282,901 1262,881 L 442,47 C 390,-6 338,-33 285,-33 Z"/>
  </g>
  <g id="bullet-char-template-9679" transform="scale(0.00048828125,-0.00048828125)">
   <path d="M 813,0 C 632,0 489,54 383,161 276,268 223,411 223,592 223,773 276,916 383,1023 489,1130 632,1184 813,1184 992,1184 1136,1130 1245,1023 1353,916 1407,772 1407,592 1407,412 1353,268 1245,161 1136,54 992,0 813,0 Z"/>
  </g>
  <g id="bullet-char-template-8226" transform="scale(0.00048828125,-0.00048828125)">
   <path d="M 346,457 C 273,457 209,483 155,535 101,586 74,649 74,723 74,796 101,859 155,911 209,963 273,989 346,989 419,989 480,963 531,910 582,859 608,796 608,723 608,648 583,586 532,535 482,483 420,457 346,457 Z"/>
  </g>
  <g id="bullet-char-template-8211" transform="scale(0.00048828125,-0.00048828125)">
   <path d="M -4,459 L 1135,459 1135,606 -4,606 -4,459 Z"/>
  </g>
  <g id="bullet-char-template-61548" transform="scale(0.00048828125,-0.00048828125)">
   <path d="M 173,740 C 173,903 231,1043 346,1159 462,1274 601,1332 765,1332 928,1332 1067,1274 1183,1159 1299,1043 1357,903 1357,740 1357,577 1299,437 1183,322 1067,206 928,148 765,148 601,148 462,206 346,322 231,437 173,577 173,740 Z"/>
  </g>
 </defs>
 <g class="Page">
  <g class="Group">
   <g class="com.sun.star.drawing.CustomShape">
    <g id="id3">
     <rect class="BoundingBox" stroke="none" fill="none" x="2400" y="6433" width="3201" height="3201"/>
     <path fill="rgb(248,248,248)" stroke="none" d="M 4000,9633 L 2400,9633 2400,6433 5600,6433 5600,9633 4000,9633 Z"/>
    </g>
   </g>
   <g class="Group">
    <g class="com.sun.star.drawing.LineShape">
     <g id="id4">
      <rect class="BoundingBox" stroke="none" fill="none" x="3998" y="6681" width="3" height="2703"/>
      <path fill="none" stroke="rgb(0,0,0)" d="M 3999,6682 L 3999,9382"/>
     </g>
    </g>
    <g class="com.sun.star.drawing.LineShape">
     <g id="id5">
      <rect class="BoundingBox" stroke="none" fill="none" x="5171" y="6681" width="3" height="2703"/>
      <path fill="none" stroke="rgb(0,0,0)" d="M 5172,6682 L 5172,9382"/>
     </g>
    </g>
    <g class="com.sun.star.drawing.LineShape">
     <g id="id6">
      <rect class="BoundingBox" stroke="none" fill="none" x="2678" y="6831" width="2642" height="3"/>
      <path fill="none" stroke="rgb(0,0,0)" d="M 5318,6832 L 2679,6832"/>
     </g>
    </g>
    <g class="com.sun.star.drawing.LineShape">
     <g id="id7">
      <rect class="BoundingBox" stroke="none" fill="none" x="2825" y="6681" width="3" height="2703"/>
      <path fill="none" stroke="rgb(0,0,0)" d="M 2826,6682 L 2826,9382"/>
     </g>
    </g>
    <g class="com.sun.star.drawing.LineShape">
     <g id="id8">
      <rect class="BoundingBox" stroke="none" fill="none" x="2678" y="8031" width="2642" height="3"/>
      <path fill="none" stroke="rgb(0,0,0)" d="M 5318,8032 L 2679,8032"/>
     </g>
    </g>
    <g class="com.sun.star.drawing.LineShape">
     <g id="id9">
      <rect class="BoundingBox" stroke="none" fill="none" x="2678" y="9232" width="2642" height="3"/>
      <path fill="none" stroke="rgb(0,0,0)" d="M 5318,9233 L 2679,9233"/>
     </g>
    </g>
    <g class="com.sun.star.drawing.CustomShape">
     <g id="id10">
      <rect class="BoundingBox" stroke="none" fill="none" x="2629" y="6632" width="395" height="403"/>
      <path fill="rgb(179,244,171)" stroke="none" d="M 3022,6833 C 3022,6868 3013,6903 2996,6933 2979,6963 2954,6989 2924,7006 2894,7024 2860,7033 2826,7033 2792,7033 2758,7024 2728,7006 2698,6989 2673,6963 2656,6933 2639,6903 2630,6868 2630,6833 2630,6798 2639,6763 2656,6733 2673,6703 2698,6677 2728,6660 2758,6642 2792,6633 2826,6633 2860,6633 2894,6642 2924,6660 2954,6677 2979,6703 2996,6733 3013,6763 3022,6798 3022,6833 L 3022,6833 Z"/>
      <path fill="none" stroke="rgb(128,128,128)" d="M 3022,6833 C 3022,6868 3013,6903 2996,6933 2979,6963 2954,6989 2924,7006 2894,7024 2860,7033 2826,7033 2792,7033 2758,7024 2728,7006 2698,6989 2673,6963 2656,6933 2639,6903 2630,6868 2630,6833 2630,6798 2639,6763 2656,6733 2673,6703 2698,6677 2728,6660 2758,6642 2792,6633 2826,6633 2860,6633 2894,6642 2924,6660 2954,6677 2979,6703 2996,6733 3013,6763 3022,6798 3022,6833 Z"/>
     </g>
    </g>
    <g class="com.sun.star.drawing.CustomShape">
     <g id="id11">
      <rect class="BoundingBox" stroke="none" fill="none" x="3804" y="6632" width="394" height="403"/>
      <path fill="rgb(179,244,171)" stroke="none" d="M 4196,6833 C 4196,6868 4187,6903 4170,6933 4153,6963 4128,6989 4098,7006 4069,7024 4035,7033 4001,7033 3966,7033 3932,7024 3903,7006 3873,6989 3848,6963 3831,6933 3814,6903 3805,6868 3805,6833 3805,6798 3814,6763 3831,6733 3848,6703 3873,6677 3903,6660 3932,6642 3966,6633 4001,6633 4035,6633 4069,6642 4098,6660 4128,6677 4153,6703 4170,6733 4187,6763 4196,6798 4196,6833 L 4196,6833 Z"/>
      <path fill="none" stroke="rgb(128,128,128)" d="M 4196,6833 C 4196,6868 4187,6903 4170,6933 4153,6963 4128,6989 4098,7006 4069,7024 4035,7033 4001,7033 3966,7033 3932,7024 3903,7006 3873,6989 3848,6963 3831,6933 3814,6903 3805,6868 3805,6833 3805,6798 3814,6763 3831,6733 3848,6703 3873,6677 3903,6660 3932,6642 3966,6633 4001,6633 4035,6633 4069,6642 4098,6660 4128,6677 4153,6703 4170,6733 4187,6763 4196,6798 4196,6833 Z"/>
     </g>
    </g>
    <g class="com.sun.star.drawing.CustomShape">
     <g id="id12">
      <rect class="BoundingBox" stroke="none" fill="none" x="4976" y="6633" width="396" height="403"/>
      <path fill="rgb(179,244,171)" stroke="none" d="M 5370,6834 C 5370,6869 5361,6904 5344,6934 5326,6964 5302,6990 5272,7007 5242,7025 5208,7034 5174,7034 5139,7034 5105,7025 5075,7007 5045,6990 5021,6964 5003,6934 4986,6904 4977,6869 4977,6834 4977,6799 4986,6764 5003,6734 5021,6704 5045,6678 5075,6661 5105,6643 5139,6634 5174,6634 5208,6634 5242,6643 5272,6661 5302,6678 5326,6704 5344,6734 5361,6764 5370,6799 5370,6834 L 5370,6834 Z"/>
      <path fill="none" stroke="rgb(128,128,128)" d="M 5370,6834 C 5370,6869 5361,6904 5344,6934 5326,6964 5302,6990 5272,7007 5242,7025 5208,7034 5174,7034 5139,7034 5105,7025 5075,7007 5045,6990 5021,6964 5003,6934 4986,6904 4977,6869 4977,6834 4977,6799 4986,6764 5003,6734 5021,6704 5045,6678 5075,6661 5105,6643 5139,6634 5174,6634 5208,6634 5242,6643 5272,6661 5302,6678 5326,6704 5344,6734 5361,6764 5370,6799 5370,6834 Z"/>
     </g>
    </g>
    <g class="com.sun.star.drawing.CustomShape">
     <g id="id13">
      <rect class="BoundingBox" stroke="none" fill="none" x="2630" y="7832" width="395" height="404"/>
      <path fill="rgb(179,244,171)" stroke="none" d="M 3023,8034 C 3023,8069 3014,8103 2997,8134 2980,8164 2955,8190 2925,8207 2895,8225 2861,8234 2827,8234 2793,8234 2759,8225 2729,8207 2699,8190 2674,8164 2657,8134 2640,8103 2631,8069 2631,8034 2631,7998 2640,7964 2657,7933 2674,7903 2699,7877 2729,7860 2759,7842 2793,7833 2827,7833 2861,7833 2895,7842 2925,7860 2955,7877 2980,7903 2997,7933 3014,7964 3023,7998 3023,8034 L 3023,8034 Z"/>
      <path fill="none" stroke="rgb(128,128,128)" d="M 3023,8034 C 3023,8069 3014,8103 2997,8134 2980,8164 2955,8190 2925,8207 2895,8225 2861,8234 2827,8234 2793,8234 2759,8225 2729,8207 2699,8190 2674,8164 2657,8134 2640,8103 2631,8069 2631,8034 2631,7998 2640,7964 2657,7933 2674,7903 2699,7877 2729,7860 2759,7842 2793,7833 2827,7833 2861,7833 2895,7842 2925,7860 2955,7877 2980,7903 2997,7933 3014,7964 3023,7998 3023,8034 Z"/>
     </g>
    </g>
    <g class="com.sun.star.drawing.CustomShape">
     <g id="id14">
      <rect class="BoundingBox" stroke="none" fill="none" x="3804" y="7833" width="394" height="404"/>
      <path fill="rgb(179,244,171)" stroke="none" d="M 4196,8035 C 4196,8070 4187,8104 4170,8135 4153,8165 4128,8191 4098,8208 4069,8226 4035,8235 4001,8235 3966,8235 3932,8226 3903,8208 3873,8191 3848,8165 3831,8135 3814,8104 3805,8070 3805,8035 3805,7999 3814,7965 3831,7934 3848,7904 3873,7878 3903,7861 3932,7843 3966,7834 4001,7834 4035,7834 4069,7843 4098,7861 4128,7878 4153,7904 4170,7934 4187,7965 4196,7999 4196,8035 L 4196,8035 Z"/>
      <path fill="none" stroke="rgb(128,128,128)" d="M 4196,8035 C 4196,8070 4187,8104 4170,8135 4153,8165 4128,8191 4098,8208 4069,8226 4035,8235 4001,8235 3966,8235 3932,8226 3903,8208 3873,8191 3848,8165 3831,8135 3814,8104 3805,8070 3805,8035 3805,7999 3814,7965 3831,7934 3848,7904 3873,7878 3903,7861 3932,7843 3966,7834 4001,7834 4035,7834 4069,7843 4098,7861 4128,7878 4153,7904 4170,7934 4187,7965 4196,7999 4196,8035 Z"/>
     </g>
    </g>
    <g class="com.sun.star.drawing.CustomShape">
     <g id="id15">
      <rect class="BoundingBox" stroke="none" fill="none" x="4977" y="7833" width="396" height="404"/>
      <path fill="rgb(179,244,171)" stroke="none" d="M 5371,8035 C 5371,8070 5362,8104 5345,8135 5327,8165 5303,8191 5273,8208 5243,8226 5209,8235 5175,8235 5140,8235 5106,8226 5076,8208 5046,8191 5022,8165 5004,8135 4987,8104 4978,8070 4978,8035 4978,7999 4987,7965 5004,7934 5022,7904 5046,7878 5076,7861 5106,7843 5140,7834 5175,7834 5209,7834 5243,7843 5273,7861 5303,7878 5327,7904 5345,7934 5362,7965 5371,7999 5371,8035 L 5371,8035 Z"/>
      <path fill="none" stroke="rgb(128,128,128)" d="M 5371,8035 C 5371,8070 5362,8104 5345,8135 5327,8165 5303,8191 5273,8208 5243,8226 5209,8235 5175,8235 5140,8235 5106,8226 5076,8208 5046,8191 5022,8165 5004,8135 4987,8104 4978,8070 4978,8035 4978,7999 4987,7965 5004,7934 5022,7904 5046,7878 5076,7861 5106,7843 5140,7834 5175,7834 5209,7834 5243,7843 5273,7861 5303,7878 5327,7904 5345,7934 5362,7965 5371,7999 5371,8035 Z"/>
     </g>
    </g>
    <g class="com.sun.star.drawing.CustomShape">
     <g id="id16">
      <rect class="BoundingBox" stroke="none" fill="none" x="2630" y="9031" width="395" height="403"/>
      <path fill="rgb(179,244,171)" stroke="none" d="M 3023,9232 C 3023,9267 3014,9302 2997,9332 2980,9362 2955,9388 2925,9405 2895,9423 2861,9432 2827,9432 2793,9432 2759,9423 2729,9405 2699,9388 2674,9362 2657,9332 2640,9302 2631,9267 2631,9232 2631,9197 2640,9162 2657,9132 2674,9102 2699,9076 2729,9059 2759,9041 2793,9032 2827,9032 2861,9032 2895,9041 2925,9059 2955,9076 2980,9102 2997,9132 3014,9162 3023,9197 3023,9232 L 3023,9232 Z"/>
      <path fill="none" stroke="rgb(128,128,128)" d="M 3023,9232 C 3023,9267 3014,9302 2997,9332 2980,9362 2955,9388 2925,9405 2895,9423 2861,9432 2827,9432 2793,9432 2759,9423 2729,9405 2699,9388 2674,9362 2657,9332 2640,9302 2631,9267 2631,9232 2631,9197 2640,9162 2657,9132 2674,9102 2699,9076 2729,9059 2759,9041 2793,9032 2827,9032 2861,9032 2895,9041 2925,9059 2955,9076 2980,9102 2997,9132 3014,9162 3023,9197 3023,9232 Z"/>
     </g>
    </g>
    <g class="com.sun.star.drawing.CustomShape">
     <g id="id17">
      <rect class="BoundingBox" stroke="none" fill="none" x="3804" y="9032" width="394" height="403"/>
      <path fill="rgb(179,244,171)" stroke="none" d="M 4196,9233 C 4196,9268 4187,9303 4170,9333 4153,9363 4128,9389 4098,9406 4069,9424 4035,9433 4001,9433 3966,9433 3932,9424 3903,9406 3873,9389 3848,9363 3831,9333 3814,9303 3805,9268 3805,9233 3805,9198 3814,9163 3831,9133 3848,9103 3873,9077 3903,9060 3932,9042 3966,9033 4001,9033 4035,9033 4069,9042 4098,9060 4128,9077 4153,9103 4170,9133 4187,9163 4196,9198 4196,9233 L 4196,9233 Z"/>
      <path fill="none" stroke="rgb(128,128,128)" d="M 4196,9233 C 4196,9268 4187,9303 4170,9333 4153,9363 4128,9389 4098,9406 4069,9424 4035,9433 4001,9433 3966,9433 3932,9424 3903,9406 3873,9389 3848,9363 3831,9333 3814,9303 3805,9268 3805,9233 3805,9198 3814,9163 3831,9133 3848,9103 3873,9077 3903,9060 3932,9042 3966,9033 4001,9033 4035,9033 4069,9042 4098,9060 4128,9077 4153,9103 4170,9133 4187,9163 4196,9198 4196,9233 Z"/>
     </g>
    </g>
    <g class="com.sun.star.drawing.CustomShape">
     <g id="id18">
      <rect class="BoundingBox" stroke="none" fill="none" x="4977" y="9032" width="396" height="403"/>
      <path fill="rgb(179,244,171)" stroke="none" d="M 5371,9233 C 5371,9268 5362,9303 5345,9333 5327,9363 5303,9389 5273,9406 5243,9424 5209,9433 5175,9433 5140,9433 5106,9424 5076,9406 5046,9389 5022,9363 5004,9333 4987,9303 4978,9268 4978,9233 4978,9198 4987,9163 5004,9133 5022,9103 5046,9077 5076,9060 5106,9042 5140,9033 5175,9033 5209,9033 5243,9042 5273,9060 5303,9077 5327,9103 5345,9133 5362,9163 5371,9198 5371,9233 L 5371,9233 Z"/>
      <path fill="none" stroke="rgb(128,128,128)" d="M 5371,9233 C 5371,9268 5362,9303 5345,9333 5327,9363 5303,9389 5273,9406 5243,9424 5209,9433 5175,9433 5140,9433 5106,9424 5076,9406 5046,9389 5022,9363 5004,9333 4987,9303 4978,9268 4978,9233 4978,9198 4987,9163 5004,9133 5022,9103 5046,9077 5076,9060 5106,9042 5140,9033 5175,9033 5209,9033 5243,9042 5273,9060 5303,9077 5327,9103 5345,9133 5362,9163 5371,9198 5371,9233 Z"/>
     </g>
    </g>
   </g>
  </g>
  <g class="Group">
   <g class="com.sun.star.drawing.CustomShape">
    <g id="id19">
     <rect class="BoundingBox" stroke="none" fill="none" x="6425" y="6449" width="3201" height="3201"/>
     <path fill="rgb(248,248,248)" stroke="none" d="M 8025,9649 L 6425,9649 6425,6449 9625,6449 9625,9649 8025,9649 Z"/>
    </g>
   </g>
   <g class="Group">
    <g class="com.sun.star.drawing.LineShape">
     <g id="id20">
      <rect class="BoundingBox" stroke="none" fill="none" x="8023" y="6696" width="3" height="2703"/>
      <path fill="none" stroke="rgb(0,0,0)" d="M 8024,6697 L 8024,9397"/>
     </g>
    </g>
    <g class="com.sun.star.drawing.LineShape">
     <g id="id21">
      <rect class="BoundingBox" stroke="none" fill="none" x="9196" y="6696" width="3" height="2703"/>
      <path fill="none" stroke="rgb(0,0,0)" d="M 9197,6697 L 9197,9397"/>
     </g>
    </g>
    <g class="com.sun.star.drawing.LineShape">
     <g id="id22">
      <rect class="BoundingBox" stroke="none" fill="none" x="7436" y="6696" width="3" height="2703"/>
      <path fill="none" stroke="rgb(0,0,0)" d="M 7437,6697 L 7437,9397"/>
     </g>
    </g>
    <g class="com.sun.star.drawing.LineShape">
     <g id="id23">
      <rect class="BoundingBox" stroke="none" fill="none" x="8609" y="6696" width="3" height="2703"/>
      <path fill="none" stroke="rgb(0,0,0)" d="M 8610,6697 L 8610,9397"/>
     </g>
    </g>
    <g class="com.sun.star.drawing.LineShape">
     <g id="id24">
      <rect class="BoundingBox" stroke="none" fill="none" x="6703" y="7446" width="2642" height="3"/>
      <path fill="none" stroke="rgb(0,0,0)" d="M 9343,7447 L 6704,7447"/>
     </g>
    </g>
    <g class="com.sun.star.drawing.LineShape">
     <g id="id25">
      <rect class="BoundingBox" stroke="none" fill="none" x="6703" y="6846" width="2642" height="3"/>
      <path fill="none" stroke="rgb(0,0,0)" d="M 9343,6847 L 6704,6847"/>
     </g>
    </g>
    <g class="com.sun.star.drawing.LineShape">
     <g id="id26">
      <rect class="BoundingBox" stroke="none" fill="none" x="6850" y="6696" width="3" height="2703"/>
      <path fill="none" stroke="rgb(0,0,0)" d="M 6851,6697 L 6851,9397"/>
     </g>
    </g>
    <g class="com.sun.star.drawing.LineShape">
     <g id="id27">
      <rect class="BoundingBox" stroke="none" fill="none" x="6703" y="8046" width="2642" height="3"/>
      <path fill="none" stroke="rgb(0,0,0)" d="M 9343,8047 L 6704,8047"/>
     </g>
    </g>
    <g class="com.sun.star.drawing.LineShape">
     <g id="id28">
      <rect class="BoundingBox" stroke="none" fill="none" x="6703" y="8647" width="2642" height="3"/>
      <path fill="none" stroke="rgb(0,0,0)" d="M 9343,8648 L 6704,8648"/>
     </g>
    </g>
    <g class="com.sun.star.drawing.LineShape">
     <g id="id29">
      <rect class="BoundingBox" stroke="none" fill="none" x="6703" y="9247" width="2642" height="3"/>
      <path fill="none" stroke="rgb(0,0,0)" d="M 9343,9248 L 6704,9248"/>
     </g>
    </g>
    <g class="com.sun.star.drawing.CustomShape">
     <g id="id30">
      <rect class="BoundingBox" stroke="none" fill="none" x="6655" y="6647" width="394" height="403"/>
      <path fill="rgb(179,244,171)" stroke="none" d="M 7047,6848 C 7047,6883 7038,6918 7021,6948 7004,6978 6979,7004 6949,7021 6920,7039 6886,7048 6852,7048 6817,7048 6783,7039 6754,7021 6724,7004 6699,6978 6682,6948 6665,6918 6656,6883 6656,6848 6656,6813 6665,6778 6682,6748 6699,6718 6724,6692 6754,6675 6783,6657 6817,6648 6852,6648 6886,6648 6920,6657 6949,6675 6979,6692 7004,6718 7021,6748 7038,6778 7047,6813 7047,6848 L 7047,6848 Z"/>
      <path fill="none" stroke="rgb(128,128,128)" d="M 7047,6848 C 7047,6883 7038,6918 7021,6948 7004,6978 6979,7004 6949,7021 6920,7039 6886,7048 6852,7048 6817,7048 6783,7039 6754,7021 6724,7004 6699,6978 6682,6948 6665,6918 6656,6883 6656,6848 6656,6813 6665,6778 6682,6748 6699,6718 6724,6692 6754,6675 6783,6657 6817,6648 6852,6648 6886,6648 6920,6657 6949,6675 6979,6692 7004,6718 7021,6748 7038,6778 7047,6813 7047,6848 Z"/>
     </g>
    </g>
    <g class="com.sun.star.drawing.CustomShape">
     <g id="id31">
      <rect class="BoundingBox" stroke="none" fill="none" x="7242" y="6647" width="394" height="403"/>
      <path fill="rgb(70,240,49)" stroke="none" d="M 7634,6848 C 7634,6883 7625,6918 7608,6948 7591,6978 7566,7004 7536,7021 7507,7039 7473,7048 7439,7048 7404,7048 7370,7039 7341,7021 7311,7004 7286,6978 7269,6948 7252,6918 7243,6883 7243,6848 7243,6813 7252,6778 7269,6748 7286,6718 7311,6692 7341,6675 7370,6657 7404,6648 7439,6648 7473,6648 7507,6657 7536,6675 7566,6692 7591,6718 7608,6748 7625,6778 7634,6813 7634,6848 L 7634,6848 Z"/>
      <path fill="none" stroke="rgb(128,128,128)" d="M 7634,6848 C 7634,6883 7625,6918 7608,6948 7591,6978 7566,7004 7536,7021 7507,7039 7473,7048 7439,7048 7404,7048 7370,7039 7341,7021 7311,7004 7286,6978 7269,6948 7252,6918 7243,6883 7243,6848 7243,6813 7252,6778 7269,6748 7286,6718 7311,6692 7341,6675 7370,6657 7404,6648 7439,6648 7473,6648 7507,6657 7536,6675 7566,6692 7591,6718 7608,6748 7625,6778 7634,6813 7634,6848 Z"/>
     </g>
    </g>
    <g class="com.sun.star.drawing.CustomShape">
     <g id="id32">
      <rect class="BoundingBox" stroke="none" fill="none" x="7827" y="6647" width="395" height="403"/>
      <path fill="rgb(179,244,171)" stroke="none" d="M 8220,6848 C 8220,6883 8211,6918 8194,6948 8177,6978 8152,7004 8122,7021 8092,7039 8058,7048 8024,7048 7990,7048 7956,7039 7926,7021 7896,7004 7871,6978 7854,6948 7837,6918 7828,6883 7828,6848 7828,6813 7837,6778 7854,6748 7871,6718 7896,6692 7926,6675 7956,6657 7990,6648 8024,6648 8058,6648 8092,6657 8122,6675 8152,6692 8177,6718 8194,6748 8211,6778 8220,6813 8220,6848 L 8220,6848 Z"/>
      <path fill="none" stroke="rgb(128,128,128)" d="M 8220,6848 C 8220,6883 8211,6918 8194,6948 8177,6978 8152,7004 8122,7021 8092,7039 8058,7048 8024,7048 7990,7048 7956,7039 7926,7021 7896,7004 7871,6978 7854,6948 7837,6918 7828,6883 7828,6848 7828,6813 7837,6778 7854,6748 7871,6718 7896,6692 7926,6675 7956,6657 7990,6648 8024,6648 8058,6648 8092,6657 8122,6675 8152,6692 8177,6718 8194,6748 8211,6778 8220,6813 8220,6848 Z"/>
     </g>
    </g>
    <g class="com.sun.star.drawing.CustomShape">
     <g id="id33">
      <rect class="BoundingBox" stroke="none" fill="none" x="8416" y="6648" width="394" height="403"/>
      <path fill="rgb(70,240,49)" stroke="none" d="M 8808,6849 C 8808,6884 8799,6919 8782,6949 8765,6979 8740,7005 8710,7022 8681,7040 8647,7049 8613,7049 8578,7049 8544,7040 8515,7022 8485,7005 8460,6979 8443,6949 8426,6919 8417,6884 8417,6849 8417,6814 8426,6779 8443,6749 8460,6719 8485,6693 8515,6676 8544,6658 8578,6649 8613,6649 8647,6649 8681,6658 8710,6676 8740,6693 8765,6719 8782,6749 8799,6779 8808,6814 8808,6849 L 8808,6849 Z"/>
      <path fill="none" stroke="rgb(128,128,128)" d="M 8808,6849 C 8808,6884 8799,6919 8782,6949 8765,6979 8740,7005 8710,7022 8681,7040 8647,7049 8613,7049 8578,7049 8544,7040 8515,7022 8485,7005 8460,6979 8443,6949 8426,6919 8417,6884 8417,6849 8417,6814 8426,6779 8443,6749 8460,6719 8485,6693 8515,6676 8544,6658 8578,6649 8613,6649 8647,6649 8681,6658 8710,6676 8740,6693 8765,6719 8782,6749 8799,6779 8808,6814 8808,6849 Z"/>
     </g>
    </g>
    <g class="com.sun.star.drawing.CustomShape">
     <g id="id34">
      <rect class="BoundingBox" stroke="none" fill="none" x="9002" y="6648" width="394" height="403"/>
      <path fill="rgb(179,244,171)" stroke="none" d="M 9394,6849 C 9394,6884 9385,6919 9368,6949 9351,6979 9326,7005 9296,7022 9267,7040 9233,7049 9199,7049 9164,7049 9130,7040 9101,7022 9071,7005 9046,6979 9029,6949 9012,6919 9003,6884 9003,6849 9003,6814 9012,6779 9029,6749 9046,6719 9071,6693 9101,6676 9130,6658 9164,6649 9199,6649 9233,6649 9267,6658 9296,6676 9326,6693 9351,6719 9368,6749 9385,6779 9394,6814 9394,6849 L 9394,6849 Z"/>
      <path fill="none" stroke="rgb(128,128,128)" d="M 9394,6849 C 9394,6884 9385,6919 9368,6949 9351,6979 9326,7005 9296,7022 9267,7040 9233,7049 9199,7049 9164,7049 9130,7040 9101,7022 9071,7005 9046,6979 9029,6949 9012,6919 9003,6884 9003,6849 9003,6814 9012,6779 9029,6749 9046,6719 9071,6693 9101,6676 9130,6658 9164,6649 9199,6649 9233,6649 9267,6658 9296,6676 9326,6693 9351,6719 9368,6749 9385,6779 9394,6814 9394,6849 Z"/>
     </g>
    </g>
    <g class="com.sun.star.drawing.CustomShape">
     <g id="id35">
      <rect class="BoundingBox" stroke="none" fill="none" x="6656" y="7247" width="394" height="404"/>
      <path fill="rgb(70,240,49)" stroke="none" d="M 7048,7449 C 7048,7484 7039,7518 7022,7549 7005,7579 6980,7605 6950,7622 6921,7640 6887,7649 6853,7649 6818,7649 6784,7640 6755,7622 6725,7605 6700,7579 6683,7549 6666,7518 6657,7484 6657,7449 6657,7413 6666,7379 6683,7348 6700,7318 6725,7292 6755,7275 6784,7257 6818,7248 6853,7248 6887,7248 6921,7257 6950,7275 6980,7292 7005,7318 7022,7348 7039,7379 7048,7413 7048,7449 L 7048,7449 Z"/>
      <path fill="none" stroke="rgb(128,128,128)" d="M 7048,7449 C 7048,7484 7039,7518 7022,7549 7005,7579 6980,7605 6950,7622 6921,7640 6887,7649 6853,7649 6818,7649 6784,7640 6755,7622 6725,7605 6700,7579 6683,7549 6666,7518 6657,7484 6657,7449 6657,7413 6666,7379 6683,7348 6700,7318 6725,7292 6755,7275 6784,7257 6818,7248 6853,7248 6887,7248 6921,7257 6950,7275 6980,7292 7005,7318 7022,7348 7039,7379 7048,7413 7048,7449 Z"/>
     </g>
    </g>
    <g class="com.sun.star.drawing.CustomShape">
     <g id="id36">
      <rect class="BoundingBox" stroke="none" fill="none" x="7241" y="7247" width="395" height="404"/>
      <path fill="rgb(70,240,49)" stroke="none" d="M 7634,7449 C 7634,7484 7625,7518 7608,7549 7591,7579 7566,7605 7536,7622 7506,7640 7472,7649 7438,7649 7404,7649 7370,7640 7340,7622 7310,7605 7285,7579 7268,7549 7251,7518 7242,7484 7242,7449 7242,7413 7251,7379 7268,7348 7285,7318 7310,7292 7340,7275 7370,7257 7404,7248 7438,7248 7472,7248 7506,7257 7536,7275 7566,7292 7591,7318 7608,7348 7625,7379 7634,7413 7634,7449 L 7634,7449 Z"/>
      <path fill="none" stroke="rgb(128,128,128)" d="M 7634,7449 C 7634,7484 7625,7518 7608,7549 7591,7579 7566,7605 7536,7622 7506,7640 7472,7649 7438,7649 7404,7649 7370,7640 7340,7622 7310,7605 7285,7579 7268,7549 7251,7518 7242,7484 7242,7449 7242,7413 7251,7379 7268,7348 7285,7318 7310,7292 7340,7275 7370,7257 7404,7248 7438,7248 7472,7248 7506,7257 7536,7275 7566,7292 7591,7318 7608,7348 7625,7379 7634,7413 7634,7449 Z"/>
     </g>
    </g>
    <g class="com.sun.star.drawing.CustomShape">
     <g id="id37">
      <rect class="BoundingBox" stroke="none" fill="none" x="7827" y="7247" width="395" height="404"/>
      <path fill="rgb(70,240,49)" stroke="none" d="M 8220,7449 C 8220,7484 8211,7518 8194,7549 8177,7579 8152,7605 8122,7622 8092,7640 8058,7649 8024,7649 7990,7649 7956,7640 7926,7622 7896,7605 7871,7579 7854,7549 7837,7518 7828,7484 7828,7449 7828,7413 7837,7379 7854,7348 7871,7318 7896,7292 7926,7275 7956,7257 7990,7248 8024,7248 8058,7248 8092,7257 8122,7275 8152,7292 8177,7318 8194,7348 8211,7379 8220,7413 8220,7449 L 8220,7449 Z"/>
      <path fill="none" stroke="rgb(128,128,128)" d="M 8220,7449 C 8220,7484 8211,7518 8194,7549 8177,7579 8152,7605 8122,7622 8092,7640 8058,7649 8024,7649 7990,7649 7956,7640 7926,7622 7896,7605 7871,7579 7854,7549 7837,7518 7828,7484 7828,7449 7828,7413 7837,7379 7854,7348 7871,7318 7896,7292 7926,7275 7956,7257 7990,7248 8024,7248 8058,7248 8092,7257 8122,7275 8152,7292 8177,7318 8194,7348 8211,7379 8220,7413 8220,7449 Z"/>
     </g>
    </g>
    <g class="com.sun.star.drawing.CustomShape">
     <g id="id38">
      <rect class="BoundingBox" stroke="none" fill="none" x="8416" y="7248" width="394" height="404"/>
      <path fill="rgb(70,240,49)" stroke="none" d="M 8808,7450 C 8808,7485 8799,7519 8782,7550 8765,7580 8740,7606 8710,7623 8681,7641 8647,7650 8613,7650 8578,7650 8544,7641 8515,7623 8485,7606 8460,7580 8443,7550 8426,7519 8417,7485 8417,7450 8417,7414 8426,7380 8443,7349 8460,7319 8485,7293 8515,7276 8544,7258 8578,7249 8613,7249 8647,7249 8681,7258 8710,7276 8740,7293 8765,7319 8782,7349 8799,7380 8808,7414 8808,7450 L 8808,7450 Z"/>
      <path fill="none" stroke="rgb(128,128,128)" d="M 8808,7450 C 8808,7485 8799,7519 8782,7550 8765,7580 8740,7606 8710,7623 8681,7641 8647,7650 8613,7650 8578,7650 8544,7641 8515,7623 8485,7606 8460,7580 8443,7550 8426,7519 8417,7485 8417,7450 8417,7414 8426,7380 8443,7349 8460,7319 8485,7293 8515,7276 8544,7258 8578,7249 8613,7249 8647,7249 8681,7258 8710,7276 8740,7293 8765,7319 8782,7349 8799,7380 8808,7414 8808,7450 Z"/>
     </g>
    </g>
    <g class="com.sun.star.drawing.CustomShape">
     <g id="id39">
      <rect class="BoundingBox" stroke="none" fill="none" x="9002" y="7248" width="394" height="404"/>
      <path fill="rgb(70,240,49)" stroke="none" d="M 9394,7450 C 9394,7485 9385,7519 9368,7550 9351,7580 9326,7606 9296,7623 9267,7641 9233,7650 9199,7650 9164,7650 9130,7641 9101,7623 9071,7606 9046,7580 9029,7550 9012,7519 9003,7485 9003,7450 9003,7414 9012,7380 9029,7349 9046,7319 9071,7293 9101,7276 9130,7258 9164,7249 9199,7249 9233,7249 9267,7258 9296,7276 9326,7293 9351,7319 9368,7349 9385,7380 9394,7414 9394,7450 L 9394,7450 Z"/>
      <path fill="none" stroke="rgb(128,128,128)" d="M 9394,7450 C 9394,7485 9385,7519 9368,7550 9351,7580 9326,7606 9296,7623 9267,7641 9233,7650 9199,7650 9164,7650 9130,7641 9101,7623 9071,7606 9046,7580 9029,7550 9012,7519 9003,7485 9003,7450 9003,7414 9012,7380 9029,7349 9046,7319 9071,7293 9101,7276 9130,7258 9164,7249 9199,7249 9233,7249 9267,7258 9296,7276 9326,7293 9351,7319 9368,7349 9385,7380 9394,7414 9394,7450 Z"/>
     </g>
    </g>
    <g class="com.sun.star.drawing.CustomShape">
     <g id="id40">
      <rect class="BoundingBox" stroke="none" fill="none" x="6656" y="7848" width="394" height="404"/>
      <path fill="rgb(179,244,171)" stroke="none" d="M 7048,8050 C 7048,8085 7039,8119 7022,8150 7005,8180 6980,8206 6950,8223 6921,8241 6887,8250 6853,8250 6818,8250 6784,8241 6755,8223 6725,8206 6700,8180 6683,8150 6666,8119 6657,8085 6657,8050 6657,8014 6666,7980 6683,7949 6700,7919 6725,7893 6755,7876 6784,7858 6818,7849 6853,7849 6887,7849 6921,7858 6950,7876 6980,7893 7005,7919 7022,7949 7039,7980 7048,8014 7048,8050 L 7048,8050 Z"/>
      <path fill="none" stroke="rgb(128,128,128)" d="M 7048,8050 C 7048,8085 7039,8119 7022,8150 7005,8180 6980,8206 6950,8223 6921,8241 6887,8250 6853,8250 6818,8250 6784,8241 6755,8223 6725,8206 6700,8180 6683,8150 6666,8119 6657,8085 6657,8050 6657,8014 6666,7980 6683,7949 6700,7919 6725,7893 6755,7876 6784,7858 6818,7849 6853,7849 6887,7849 6921,7858 6950,7876 6980,7893 7005,7919 7022,7949 7039,7980 7048,8014 7048,8050 Z"/>
     </g>
    </g>
    <g class="com.sun.star.drawing.CustomShape">
     <g id="id41">
      <rect class="BoundingBox" stroke="none" fill="none" x="7241" y="7848" width="395" height="404"/>
      <path fill="rgb(70,240,49)" stroke="none" d="M 7634,8050 C 7634,8085 7625,8119 7608,8150 7591,8180 7566,8206 7536,8223 7506,8241 7472,8250 7438,8250 7404,8250 7370,8241 7340,8223 7310,8206 7285,8180 7268,8150 7251,8119 7242,8085 7242,8050 7242,8014 7251,7980 7268,7949 7285,7919 7310,7893 7340,7876 7370,7858 7404,7849 7438,7849 7472,7849 7506,7858 7536,7876 7566,7893 7591,7919 7608,7949 7625,7980 7634,8014 7634,8050 L 7634,8050 Z"/>
      <path fill="none" stroke="rgb(128,128,128)" d="M 7634,8050 C 7634,8085 7625,8119 7608,8150 7591,8180 7566,8206 7536,8223 7506,8241 7472,8250 7438,8250 7404,8250 7370,8241 7340,8223 7310,8206 7285,8180 7268,8150 7251,8119 7242,8085 7242,8050 7242,8014 7251,7980 7268,7949 7285,7919 7310,7893 7340,7876 7370,7858 7404,7849 7438,7849 7472,7849 7506,7858 7536,7876 7566,7893 7591,7919 7608,7949 7625,7980 7634,8014 7634,8050 Z"/>
     </g>
    </g>
    <g class="com.sun.star.drawing.CustomShape">
     <g id="id42">
      <rect class="BoundingBox" stroke="none" fill="none" x="7828" y="7848" width="395" height="404"/>
      <path fill="rgb(179,244,171)" stroke="none" d="M 8221,8050 C 8221,8085 8212,8119 8195,8150 8178,8180 8153,8206 8123,8223 8093,8241 8059,8250 8025,8250 7991,8250 7957,8241 7927,8223 7897,8206 7872,8180 7855,8150 7838,8119 7829,8085 7829,8050 7829,8014 7838,7980 7855,7949 7872,7919 7897,7893 7927,7876 7957,7858 7991,7849 8025,7849 8059,7849 8093,7858 8123,7876 8153,7893 8178,7919 8195,7949 8212,7980 8221,8014 8221,8050 L 8221,8050 Z"/>
      <path fill="none" stroke="rgb(128,128,128)" d="M 8221,8050 C 8221,8085 8212,8119 8195,8150 8178,8180 8153,8206 8123,8223 8093,8241 8059,8250 8025,8250 7991,8250 7957,8241 7927,8223 7897,8206 7872,8180 7855,8150 7838,8119 7829,8085 7829,8050 7829,8014 7838,7980 7855,7949 7872,7919 7897,7893 7927,7876 7957,7858 7991,7849 8025,7849 8059,7849 8093,7858 8123,7876 8153,7893 8178,7919 8195,7949 8212,7980 8221,8014 8221,8050 Z"/>
     </g>
    </g>
    <g class="com.sun.star.drawing.CustomShape">
     <g id="id43">
      <rect class="BoundingBox" stroke="none" fill="none" x="8415" y="7849" width="395" height="404"/>
      <path fill="rgb(70,240,49)" stroke="none" d="M 8808,8051 C 8808,8086 8799,8120 8782,8151 8765,8181 8740,8207 8710,8224 8680,8242 8646,8251 8612,8251 8578,8251 8544,8242 8514,8224 8484,8207 8459,8181 8442,8151 8425,8120 8416,8086 8416,8051 8416,8015 8425,7981 8442,7950 8459,7920 8484,7894 8514,7877 8544,7859 8578,7850 8612,7850 8646,7850 8680,7859 8710,7877 8740,7894 8765,7920 8782,7950 8799,7981 8808,8015 8808,8051 L 8808,8051 Z"/>
      <path fill="none" stroke="rgb(128,128,128)" d="M 8808,8051 C 8808,8086 8799,8120 8782,8151 8765,8181 8740,8207 8710,8224 8680,8242 8646,8251 8612,8251 8578,8251 8544,8242 8514,8224 8484,8207 8459,8181 8442,8151 8425,8120 8416,8086 8416,8051 8416,8015 8425,7981 8442,7950 8459,7920 8484,7894 8514,7877 8544,7859 8578,7850 8612,7850 8646,7850 8680,7859 8710,7877 8740,7894 8765,7920 8782,7950 8799,7981 8808,8015 8808,8051 Z"/>
     </g>
    </g>
    <g class="com.sun.star.drawing.CustomShape">
     <g id="id44">
      <rect class="BoundingBox" stroke="none" fill="none" x="9003" y="7849" width="394" height="404"/>
      <path fill="rgb(179,244,171)" stroke="none" d="M 9395,8051 C 9395,8086 9386,8120 9369,8151 9352,8181 9327,8207 9297,8224 9268,8242 9234,8251 9200,8251 9165,8251 9131,8242 9102,8224 9072,8207 9047,8181 9030,8151 9013,8120 9004,8086 9004,8051 9004,8015 9013,7981 9030,7950 9047,7920 9072,7894 9102,7877 9131,7859 9165,7850 9200,7850 9234,7850 9268,7859 9297,7877 9327,7894 9352,7920 9369,7950 9386,7981 9395,8015 9395,8051 L 9395,8051 Z"/>
      <path fill="none" stroke="rgb(128,128,128)" d="M 9395,8051 C 9395,8086 9386,8120 9369,8151 9352,8181 9327,8207 9297,8224 9268,8242 9234,8251 9200,8251 9165,8251 9131,8242 9102,8224 9072,8207 9047,8181 9030,8151 9013,8120 9004,8086 9004,8051 9004,8015 9013,7981 9030,7950 9047,7920 9072,7894 9102,7877 9131,7859 9165,7850 9200,7850 9234,7850 9268,7859 9297,7877 9327,7894 9352,7920 9369,7950 9386,7981 9395,8015 9395,8051 Z"/>
     </g>
    </g>
    <g class="com.sun.star.drawing.CustomShape">
     <g id="id45">
      <rect class="BoundingBox" stroke="none" fill="none" x="6656" y="8448" width="394" height="404"/>
      <path fill="rgb(70,240,49)" stroke="none" d="M 7048,8650 C 7048,8685 7039,8719 7022,8750 7005,8780 6980,8806 6950,8823 6921,8841 6887,8850 6853,8850 6818,8850 6784,8841 6755,8823 6725,8806 6700,8780 6683,8750 6666,8719 6657,8685 6657,8650 6657,8614 6666,8580 6683,8549 6700,8519 6725,8493 6755,8476 6784,8458 6818,8449 6853,8449 6887,8449 6921,8458 6950,8476 6980,8493 7005,8519 7022,8549 7039,8580 7048,8614 7048,8650 L 7048,8650 Z"/>
      <path fill="none" stroke="rgb(128,128,128)" d="M 7048,8650 C 7048,8685 7039,8719 7022,8750 7005,8780 6980,8806 6950,8823 6921,8841 6887,8850 6853,8850 6818,8850 6784,8841 6755,8823 6725,8806 6700,8780 6683,8750 6666,8719 6657,8685 6657,8650 6657,8614 6666,8580 6683,8549 6700,8519 6725,8493 6755,8476 6784,8458 6818,8449 6853,8449 6887,8449 6921,8458 6950,8476 6980,8493 7005,8519 7022,8549 7039,8580 7048,8614 7048,8650 Z"/>
     </g>
    </g>
    <g class="com.sun.star.drawing.CustomShape">
     <g id="id46">
      <rect class="BoundingBox" stroke="none" fill="none" x="7241" y="8449" width="395" height="404"/>
      <path fill="rgb(70,240,49)" stroke="none" d="M 7634,8651 C 7634,8686 7625,8720 7608,8751 7591,8781 7566,8807 7536,8824 7506,8842 7472,8851 7438,8851 7404,8851 7370,8842 7340,8824 7310,8807 7285,8781 7268,8751 7251,8720 7242,8686 7242,8651 7242,8615 7251,8581 7268,8550 7285,8520 7310,8494 7340,8477 7370,8459 7404,8450 7438,8450 7472,8450 7506,8459 7536,8477 7566,8494 7591,8520 7608,8550 7625,8581 7634,8615 7634,8651 L 7634,8651 Z"/>
      <path fill="none" stroke="rgb(128,128,128)" d="M 7634,8651 C 7634,8686 7625,8720 7608,8751 7591,8781 7566,8807 7536,8824 7506,8842 7472,8851 7438,8851 7404,8851 7370,8842 7340,8824 7310,8807 7285,8781 7268,8751 7251,8720 7242,8686 7242,8651 7242,8615 7251,8581 7268,8550 7285,8520 7310,8494 7340,8477 7370,8459 7404,8450 7438,8450 7472,8450 7506,8459 7536,8477 7566,8494 7591,8520 7608,8550 7625,8581 7634,8615 7634,8651 Z"/>
     </g>
    </g>
    <g class="com.sun.star.drawing.CustomShape">
     <g id="id47">
      <rect class="BoundingBox" stroke="none" fill="none" x="7828" y="8449" width="395" height="404"/>
      <path fill="rgb(70,240,49)" stroke="none" d="M 8221,8651 C 8221,8686 8212,8720 8195,8751 8178,8781 8153,8807 8123,8824 8093,8842 8059,8851 8025,8851 7991,8851 7957,8842 7927,8824 7897,8807 7872,8781 7855,8751 7838,8720 7829,8686 7829,8651 7829,8615 7838,8581 7855,8550 7872,8520 7897,8494 7927,8477 7957,8459 7991,8450 8025,8450 8059,8450 8093,8459 8123,8477 8153,8494 8178,8520 8195,8550 8212,8581 8221,8615 8221,8651 L 8221,8651 Z"/>
      <path fill="none" stroke="rgb(128,128,128)" d="M 8221,8651 C 8221,8686 8212,8720 8195,8751 8178,8781 8153,8807 8123,8824 8093,8842 8059,8851 8025,8851 7991,8851 7957,8842 7927,8824 7897,8807 7872,8781 7855,8751 7838,8720 7829,8686 7829,8651 7829,8615 7838,8581 7855,8550 7872,8520 7897,8494 7927,8477 7957,8459 7991,8450 8025,8450 8059,8450 8093,8459 8123,8477 8153,8494 8178,8520 8195,8550 8212,8581 8221,8615 8221,8651 Z"/>
     </g>
    </g>
    <g class="com.sun.star.drawing.CustomShape">
     <g id="id48">
      <rect class="BoundingBox" stroke="none" fill="none" x="8415" y="8449" width="395" height="404"/>
      <path fill="rgb(70,240,49)" stroke="none" d="M 8808,8651 C 8808,8686 8799,8720 8782,8751 8765,8781 8740,8807 8710,8824 8680,8842 8646,8851 8612,8851 8578,8851 8544,8842 8514,8824 8484,8807 8459,8781 8442,8751 8425,8720 8416,8686 8416,8651 8416,8615 8425,8581 8442,8550 8459,8520 8484,8494 8514,8477 8544,8459 8578,8450 8612,8450 8646,8450 8680,8459 8710,8477 8740,8494 8765,8520 8782,8550 8799,8581 8808,8615 8808,8651 L 8808,8651 Z"/>
      <path fill="none" stroke="rgb(128,128,128)" d="M 8808,8651 C 8808,8686 8799,8720 8782,8751 8765,8781 8740,8807 8710,8824 8680,8842 8646,8851 8612,8851 8578,8851 8544,8842 8514,8824 8484,8807 8459,8781 8442,8751 8425,8720 8416,8686 8416,8651 8416,8615 8425,8581 8442,8550 8459,8520 8484,8494 8514,8477 8544,8459 8578,8450 8612,8450 8646,8450 8680,8459 8710,8477 8740,8494 8765,8520 8782,8550 8799,8581 8808,8615 8808,8651 Z"/>
     </g>
    </g>
    <g class="com.sun.star.drawing.CustomShape">
     <g id="id49">
      <rect class="BoundingBox" stroke="none" fill="none" x="9003" y="8450" width="394" height="404"/>
      <path fill="rgb(70,240,49)" stroke="none" d="M 9395,8652 C 9395,8687 9386,8721 9369,8752 9352,8782 9327,8808 9297,8825 9268,8843 9234,8852 9200,8852 9165,8852 9131,8843 9102,8825 9072,8808 9047,8782 9030,8752 9013,8721 9004,8687 9004,8652 9004,8616 9013,8582 9030,8551 9047,8521 9072,8495 9102,8478 9131,8460 9165,8451 9200,8451 9234,8451 9268,8460 9297,8478 9327,8495 9352,8521 9369,8551 9386,8582 9395,8616 9395,8652 L 9395,8652 Z"/>
      <path fill="none" stroke="rgb(128,128,128)" d="M 9395,8652 C 9395,8687 9386,8721 9369,8752 9352,8782 9327,8808 9297,8825 9268,8843 9234,8852 9200,8852 9165,8852 9131,8843 9102,8825 9072,8808 9047,8782 9030,8752 9013,8721 9004,8687 9004,8652 9004,8616 9013,8582 9030,8551 9047,8521 9072,8495 9102,8478 9131,8460 9165,8451 9200,8451 9234,8451 9268,8460 9297,8478 9327,8495 9352,8521 9369,8551 9386,8582 9395,8616 9395,8652 Z"/>
     </g>
    </g>
    <g class="com.sun.star.drawing.CustomShape">
     <g id="id50">
      <rect class="BoundingBox" stroke="none" fill="none" x="6656" y="9047" width="394" height="403"/>
      <path fill="rgb(179,244,171)" stroke="none" d="M 7048,9248 C 7048,9283 7039,9318 7022,9348 7005,9378 6980,9404 6950,9421 6921,9439 6887,9448 6853,9448 6818,9448 6784,9439 6755,9421 6725,9404 6700,9378 6683,9348 6666,9318 6657,9283 6657,9248 6657,9213 6666,9178 6683,9148 6700,9118 6725,9092 6755,9075 6784,9057 6818,9048 6853,9048 6887,9048 6921,9057 6950,9075 6980,9092 7005,9118 7022,9148 7039,9178 7048,9213 7048,9248 L 7048,9248 Z"/>
      <path fill="none" stroke="rgb(128,128,128)" d="M 7048,9248 C 7048,9283 7039,9318 7022,9348 7005,9378 6980,9404 6950,9421 6921,9439 6887,9448 6853,9448 6818,9448 6784,9439 6755,9421 6725,9404 6700,9378 6683,9348 6666,9318 6657,9283 6657,9248 6657,9213 6666,9178 6683,9148 6700,9118 6725,9092 6755,9075 6784,9057 6818,9048 6853,9048 6887,9048 6921,9057 6950,9075 6980,9092 7005,9118 7022,9148 7039,9178 7048,9213 7048,9248 Z"/>
     </g>
    </g>
    <g class="com.sun.star.drawing.CustomShape">
     <g id="id51">
      <rect class="BoundingBox" stroke="none" fill="none" x="7241" y="9047" width="395" height="403"/>
      <path fill="rgb(70,240,49)" stroke="none" d="M 7634,9248 C 7634,9283 7625,9318 7608,9348 7591,9378 7566,9404 7536,9421 7506,9439 7472,9448 7438,9448 7404,9448 7370,9439 7340,9421 7310,9404 7285,9378 7268,9348 7251,9318 7242,9283 7242,9248 7242,9213 7251,9178 7268,9148 7285,9118 7310,9092 7340,9075 7370,9057 7404,9048 7438,9048 7472,9048 7506,9057 7536,9075 7566,9092 7591,9118 7608,9148 7625,9178 7634,9213 7634,9248 L 7634,9248 Z"/>
      <path fill="none" stroke="rgb(128,128,128)" d="M 7634,9248 C 7634,9283 7625,9318 7608,9348 7591,9378 7566,9404 7536,9421 7506,9439 7472,9448 7438,9448 7404,9448 7370,9439 7340,9421 7310,9404 7285,9378 7268,9348 7251,9318 7242,9283 7242,9248 7242,9213 7251,9178 7268,9148 7285,9118 7310,9092 7340,9075 7370,9057 7404,9048 7438,9048 7472,9048 7506,9057 7536,9075 7566,9092 7591,9118 7608,9148 7625,9178 7634,9213 7634,9248 Z"/>
     </g>
    </g>
    <g class="com.sun.star.drawing.CustomShape">
     <g id="id52">
      <rect class="BoundingBox" stroke="none" fill="none" x="7828" y="9047" width="395" height="403"/>
      <path fill="rgb(179,244,171)" stroke="none" d="M 8221,9248 C 8221,9283 8212,9318 8195,9348 8178,9378 8153,9404 8123,9421 8093,9439 8059,9448 8025,9448 7991,9448 7957,9439 7927,9421 7897,9404 7872,9378 7855,9348 7838,9318 7829,9283 7829,9248 7829,9213 7838,9178 7855,9148 7872,9118 7897,9092 7927,9075 7957,9057 7991,9048 8025,9048 8059,9048 8093,9057 8123,9075 8153,9092 8178,9118 8195,9148 8212,9178 8221,9213 8221,9248 L 8221,9248 Z"/>
      <path fill="none" stroke="rgb(128,128,128)" d="M 8221,9248 C 8221,9283 8212,9318 8195,9348 8178,9378 8153,9404 8123,9421 8093,9439 8059,9448 8025,9448 7991,9448 7957,9439 7927,9421 7897,9404 7872,9378 7855,9348 7838,9318 7829,9283 7829,9248 7829,9213 7838,9178 7855,9148 7872,9118 7897,9092 7927,9075 7957,9057 7991,9048 8025,9048 8059,9048 8093,9057 8123,9075 8153,9092 8178,9118 8195,9148 8212,9178 8221,9213 8221,9248 Z"/>
     </g>
    </g>
    <g class="com.sun.star.drawing.CustomShape">
     <g id="id53">
      <rect class="BoundingBox" stroke="none" fill="none" x="8415" y="9048" width="395" height="403"/>
      <path fill="rgb(70,240,49)" stroke="none" d="M 8808,9249 C 8808,9284 8799,9319 8782,9349 8765,9379 8740,9405 8710,9422 8680,9440 8646,9449 8612,9449 8578,9449 8544,9440 8514,9422 8484,9405 8459,9379 8442,9349 8425,9319 8416,9284 8416,9249 8416,9214 8425,9179 8442,9149 8459,9119 8484,9093 8514,9076 8544,9058 8578,9049 8612,9049 8646,9049 8680,9058 8710,9076 8740,9093 8765,9119 8782,9149 8799,9179 8808,9214 8808,9249 L 8808,9249 Z"/>
      <path fill="none" stroke="rgb(128,128,128)" d="M 8808,9249 C 8808,9284 8799,9319 8782,9349 8765,9379 8740,9405 8710,9422 8680,9440 8646,9449 8612,9449 8578,9449 8544,9440 8514,9422 8484,9405 8459,9379 8442,9349 8425,9319 8416,9284 8416,9249 8416,9214 8425,9179 8442,9149 8459,9119 8484,9093 8514,9076 8544,9058 8578,9049 8612,9049 8646,9049 8680,9058 8710,9076 8740,9093 8765,9119 8782,9149 8799,9179 8808,9214 8808,9249 Z"/>
     </g>
    </g>
    <g class="com.sun.star.drawing.CustomShape">
     <g id="id54">
      <rect class="BoundingBox" stroke="none" fill="none" x="9003" y="9048" width="394" height="403"/>
      <path fill="rgb(179,244,171)" stroke="none" d="M 9395,9249 C 9395,9284 9386,9319 9369,9349 9352,9379 9327,9405 9297,9422 9268,9440 9234,9449 9200,9449 9165,9449 9131,9440 9102,9422 9072,9405 9047,9379 9030,9349 9013,9319 9004,9284 9004,9249 9004,9214 9013,9179 9030,9149 9047,9119 9072,9093 9102,9076 9131,9058 9165,9049 9200,9049 9234,9049 9268,9058 9297,9076 9327,9093 9352,9119 9369,9149 9386,9179 9395,9214 9395,9249 L 9395,9249 Z"/>
      <path fill="none" stroke="rgb(128,128,128)" d="M 9395,9249 C 9395,9284 9386,9319 9369,9349 9352,9379 9327,9405 9297,9422 9268,9440 9234,9449 9200,9449 9165,9449 9131,9440 9102,9422 9072,9405 9047,9379 9030,9349 9013,9319 9004,9284 9004,9249 9004,9214 9013,9179 9030,9149 9047,9119 9072,9093 9102,9076 9131,9058 9165,9049 9200,9049 9234,9049 9268,9058 9297,9076 9327,9093 9352,9119 9369,9149 9386,9179 9395,9214 9395,9249 Z"/>
     </g>
    </g>
   </g>
  </g>
  <g class="Group">
   <g class="com.sun.star.drawing.CustomShape">
    <g id="id55">
     <rect class="BoundingBox" stroke="none" fill="none" x="10416" y="6400" width="3201" height="3201"/>
     <path fill="rgb(248,248,248)" stroke="none" d="M 12016,9600 L 10416,9600 10416,6400 13616,6400 13616,9600 12016,9600 Z"/>
    </g>
   </g>
   <g class="Group">
    <g class="com.sun.star.drawing.CustomShape">
     <g id="id56">
      <rect class="BoundingBox" stroke="none" fill="none" x="11137" y="7099" width="1764" height="1804"/>
      <path fill="rgb(246,255,89)" stroke="none" d="M 12899,8001 C 12899,8159 12858,8314 12781,8451 12704,8588 12593,8701 12459,8780 12325,8859 12173,8901 12019,8901 11864,8901 11712,8859 11578,8780 11444,8701 11333,8588 11256,8451 11179,8314 11138,8159 11138,8001 11138,7842 11179,7687 11256,7550 11333,7413 11444,7300 11578,7221 11712,7142 11864,7100 12019,7100 12173,7100 12325,7142 12459,7221 12593,7300 12704,7413 12781,7550 12858,7687 12899,7842 12899,8001 L 12899,8001 Z"/>
      <path fill="none" stroke="rgb(128,128,128)" d="M 12899,8001 C 12899,8159 12858,8314 12781,8451 12704,8588 12593,8701 12459,8780 12325,8859 12173,8901 12019,8901 11864,8901 11712,8859 11578,8780 11444,8701 11333,8588 11256,8451 11179,8314 11138,8159 11138,8001 11138,7842 11179,7687 11256,7550 11333,7413 11444,7300 11578,7221 11712,7142 11864,7100 12019,7100 12173,7100 12325,7142 12459,7221 12593,7300 12704,7413 12781,7550 12858,7687 12899,7842 12899,8001 Z"/>
     </g>
    </g>
    <g class="com.sun.star.drawing.CustomShape">
     <g id="id57">
      <rect class="BoundingBox" stroke="none" fill="none" x="12408" y="8400" width="394" height="403"/>
      <path fill="rgb(255,184,40)" stroke="none" d="M 12800,8601 C 12800,8636 12791,8671 12774,8701 12757,8731 12732,8757 12702,8774 12673,8792 12639,8801 12605,8801 12570,8801 12536,8792 12507,8774 12477,8757 12452,8731 12435,8701 12418,8671 12409,8636 12409,8601 12409,8566 12418,8531 12435,8501 12452,8471 12477,8445 12507,8428 12536,8410 12570,8401 12605,8401 12639,8401 12673,8410 12702,8428 12732,8445 12757,8471 12774,8501 12791,8531 12800,8566 12800,8601 L 12800,8601 Z"/>
      <path fill="none" stroke="rgb(128,128,128)" d="M 12800,8601 C 12800,8636 12791,8671 12774,8701 12757,8731 12732,8757 12702,8774 12673,8792 12639,8801 12605,8801 12570,8801 12536,8792 12507,8774 12477,8757 12452,8731 12435,8701 12418,8671 12409,8636 12409,8601 12409,8566 12418,8531 12435,8501 12452,8471 12477,8445 12507,8428 12536,8410 12570,8401 12605,8401 12639,8401 12673,8410 12702,8428 12732,8445 12757,8471 12774,8501 12791,8531 12800,8566 12800,8601 Z"/>
     </g>
    </g>
    <g class="com.sun.star.drawing.LineShape">
     <g id="id58">
      <rect class="BoundingBox" stroke="none" fill="none" x="12014" y="6648" width="3" height="2702"/>
      <path fill="none" stroke="rgb(0,0,0)" d="M 12015,6649 L 12015,9348"/>
     </g>
    </g>
    <g class="com.sun.star.drawing.LineShape">
     <g id="id59">
      <rect class="BoundingBox" stroke="none" fill="none" x="13187" y="6648" width="3" height="2702"/>
      <path fill="none" stroke="rgb(0,0,0)" d="M 13188,6649 L 13188,9348"/>
     </g>
    </g>
    <g class="com.sun.star.drawing.LineShape">
     <g id="id60">
      <rect class="BoundingBox" stroke="none" fill="none" x="11427" y="6648" width="3" height="2702"/>
      <path fill="none" stroke="rgb(0,0,0)" d="M 11428,6649 L 11428,9348"/>
     </g>
    </g>
    <g class="com.sun.star.drawing.LineShape">
     <g id="id61">
      <rect class="BoundingBox" stroke="none" fill="none" x="12600" y="6648" width="3" height="2702"/>
      <path fill="none" stroke="rgb(0,0,0)" d="M 12601,6649 L 12601,9348"/>
     </g>
    </g>
    <g class="com.sun.star.drawing.LineShape">
     <g id="id62">
      <rect class="BoundingBox" stroke="none" fill="none" x="10694" y="7398" width="2642" height="3"/>
      <path fill="none" stroke="rgb(0,0,0)" d="M 13334,7399 L 10695,7399"/>
     </g>
    </g>
    <g class="com.sun.star.drawing.LineShape">
     <g id="id63">
      <rect class="BoundingBox" stroke="none" fill="none" x="10694" y="6798" width="2642" height="3"/>
      <path fill="none" stroke="rgb(0,0,0)" d="M 13334,6799 L 10695,6799"/>
     </g>
    </g>
    <g class="com.sun.star.drawing.LineShape">
     <g id="id64">
      <rect class="BoundingBox" stroke="none" fill="none" x="10841" y="6648" width="3" height="2702"/>
      <path fill="none" stroke="rgb(0,0,0)" d="M 10842,6649 L 10842,9348"/>
     </g>
    </g>
    <g class="com.sun.star.drawing.LineShape">
     <g id="id65">
      <rect class="BoundingBox" stroke="none" fill="none" x="10694" y="7998" width="2642" height="3"/>
      <path fill="none" stroke="rgb(0,0,0)" d="M 13334,7999 L 10695,7999"/>
     </g>
    </g>
    <g class="com.sun.star.drawing.LineShape">
     <g id="id66">
      <rect class="BoundingBox" stroke="none" fill="none" x="10694" y="8598" width="2642" height="3"/>
      <path fill="none" stroke="rgb(0,0,0)" d="M 13334,8599 L 10695,8599"/>
     </g>
    </g>
    <g class="com.sun.star.drawing.LineShape">
     <g id="id67">
      <rect class="BoundingBox" stroke="none" fill="none" x="10694" y="9199" width="2642" height="3"/>
      <path fill="none" stroke="rgb(0,0,0)" d="M 13334,9200 L 10695,9200"/>
     </g>
    </g>
    <g class="com.sun.star.drawing.CustomShape">
     <g id="id68">
      <rect class="BoundingBox" stroke="none" fill="none" x="10645" y="6598" width="395" height="403"/>
      <path fill="rgb(179,244,171)" stroke="none" d="M 11038,6799 C 11038,6834 11029,6869 11012,6899 10995,6929 10970,6955 10940,6972 10910,6990 10876,6999 10842,6999 10808,6999 10774,6990 10744,6972 10714,6955 10689,6929 10672,6899 10655,6869 10646,6834 10646,6799 10646,6764 10655,6729 10672,6699 10689,6669 10714,6643 10744,6626 10774,6608 10808,6599 10842,6599 10876,6599 10910,6608 10940,6626 10970,6643 10995,6669 11012,6699 11029,6729 11038,6764 11038,6799 L 11038,6799 Z"/>
      <path fill="none" stroke="rgb(128,128,128)" d="M 11038,6799 C 11038,6834 11029,6869 11012,6899 10995,6929 10970,6955 10940,6972 10910,6990 10876,6999 10842,6999 10808,6999 10774,6990 10744,6972 10714,6955 10689,6929 10672,6899 10655,6869 10646,6834 10646,6799 10646,6764 10655,6729 10672,6699 10689,6669 10714,6643 10744,6626 10774,6608 10808,6599 10842,6599 10876,6599 10910,6608 10940,6626 10970,6643 10995,6669 11012,6699 11029,6729 11038,6764 11038,6799 Z"/>
     </g>
    </g>
    <g class="com.sun.star.drawing.CustomShape">
     <g id="id69">
      <rect class="BoundingBox" stroke="none" fill="none" x="11232" y="6599" width="395" height="404"/>
      <path fill="rgb(179,244,171)" stroke="none" d="M 11625,6801 C 11625,6836 11616,6870 11599,6901 11582,6931 11557,6957 11527,6974 11497,6992 11463,7001 11429,7001 11395,7001 11361,6992 11331,6974 11301,6957 11276,6931 11259,6901 11242,6870 11233,6836 11233,6801 11233,6765 11242,6731 11259,6700 11276,6670 11301,6644 11331,6627 11361,6609 11395,6600 11429,6600 11463,6600 11497,6609 11527,6627 11557,6644 11582,6670 11599,6700 11616,6731 11625,6765 11625,6801 L 11625,6801 Z"/>
      <path fill="none" stroke="rgb(128,128,128)" d="M 11625,6801 C 11625,6836 11616,6870 11599,6901 11582,6931 11557,6957 11527,6974 11497,6992 11463,7001 11429,7001 11395,7001 11361,6992 11331,6974 11301,6957 11276,6931 11259,6901 11242,6870 11233,6836 11233,6801 11233,6765 11242,6731 11259,6700 11276,6670 11301,6644 11331,6627 11361,6609 11395,6600 11429,6600 11463,6600 11497,6609 11527,6627 11557,6644 11582,6670 11599,6700 11616,6731 11625,6765 11625,6801 Z"/>
     </g>
    </g>
    <g class="com.sun.star.drawing.CustomShape">
     <g id="id70">
      <rect class="BoundingBox" stroke="none" fill="none" x="11819" y="6599" width="396" height="404"/>
      <path fill="rgb(179,244,171)" stroke="none" d="M 12213,6801 C 12213,6836 12204,6870 12187,6901 12169,6931 12145,6957 12115,6974 12085,6992 12051,7001 12017,7001 11982,7001 11948,6992 11918,6974 11888,6957 11864,6931 11846,6901 11829,6870 11820,6836 11820,6801 11820,6765 11829,6731 11846,6700 11864,6670 11888,6644 11918,6627 11948,6609 11982,6600 12017,6600 12051,6600 12085,6609 12115,6627 12145,6644 12169,6670 12187,6700 12204,6731 12213,6765 12213,6801 L 12213,6801 Z"/>
      <path fill="none" stroke="rgb(128,128,128)" d="M 12213,6801 C 12213,6836 12204,6870 12187,6901 12169,6931 12145,6957 12115,6974 12085,6992 12051,7001 12017,7001 11982,7001 11948,6992 11918,6974 11888,6957 11864,6931 11846,6901 11829,6870 11820,6836 11820,6801 11820,6765 11829,6731 11846,6700 11864,6670 11888,6644 11918,6627 11948,6609 11982,6600 12017,6600 12051,6600 12085,6609 12115,6627 12145,6644 12169,6670 12187,6700 12204,6731 12213,6765 12213,6801 Z"/>
     </g>
    </g>
    <g class="com.sun.star.drawing.CustomShape">
     <g id="id71">
      <rect class="BoundingBox" stroke="none" fill="none" x="12407" y="6599" width="394" height="403"/>
      <path fill="rgb(179,244,171)" stroke="none" d="M 12799,6800 C 12799,6835 12790,6870 12773,6900 12756,6930 12731,6956 12701,6973 12672,6991 12638,7000 12604,7000 12569,7000 12535,6991 12506,6973 12476,6956 12451,6930 12434,6900 12417,6870 12408,6835 12408,6800 12408,6765 12417,6730 12434,6700 12451,6670 12476,6644 12506,6627 12535,6609 12569,6600 12604,6600 12638,6600 12672,6609 12701,6627 12731,6644 12756,6670 12773,6700 12790,6730 12799,6765 12799,6800 L 12799,6800 Z"/>
      <path fill="none" stroke="rgb(128,128,128)" d="M 12799,6800 C 12799,6835 12790,6870 12773,6900 12756,6930 12731,6956 12701,6973 12672,6991 12638,7000 12604,7000 12569,7000 12535,6991 12506,6973 12476,6956 12451,6930 12434,6900 12417,6870 12408,6835 12408,6800 12408,6765 12417,6730 12434,6700 12451,6670 12476,6644 12506,6627 12535,6609 12569,6600 12604,6600 12638,6600 12672,6609 12701,6627 12731,6644 12756,6670 12773,6700 12790,6730 12799,6765 12799,6800 Z"/>
     </g>
    </g>
    <g class="com.sun.star.drawing.CustomShape">
     <g id="id72">
      <rect class="BoundingBox" stroke="none" fill="none" x="12992" y="6600" width="395" height="404"/>
      <path fill="rgb(179,244,171)" stroke="none" d="M 13385,6802 C 13385,6837 13376,6871 13359,6902 13342,6932 13317,6958 13287,6975 13257,6993 13223,7002 13189,7002 13155,7002 13121,6993 13091,6975 13061,6958 13036,6932 13019,6902 13002,6871 12993,6837 12993,6802 12993,6766 13002,6732 13019,6701 13036,6671 13061,6645 13091,6628 13121,6610 13155,6601 13189,6601 13223,6601 13257,6610 13287,6628 13317,6645 13342,6671 13359,6701 13376,6732 13385,6766 13385,6802 L 13385,6802 Z"/>
      <path fill="none" stroke="rgb(128,128,128)" d="M 13385,6802 C 13385,6837 13376,6871 13359,6902 13342,6932 13317,6958 13287,6975 13257,6993 13223,7002 13189,7002 13155,7002 13121,6993 13091,6975 13061,6958 13036,6932 13019,6902 13002,6871 12993,6837 12993,6802 12993,6766 13002,6732 13019,6701 13036,6671 13061,6645 13091,6628 13121,6610 13155,6601 13189,6601 13223,6601 13257,6610 13287,6628 13317,6645 13342,6671 13359,6701 13376,6732 13385,6766 13385,6802 Z"/>
     </g>
    </g>
    <g class="com.sun.star.drawing.CustomShape">
     <g id="id73">
      <rect class="BoundingBox" stroke="none" fill="none" x="10646" y="7198" width="395" height="404"/>
      <path fill="rgb(179,244,171)" stroke="none" d="M 11039,7400 C 11039,7435 11030,7469 11013,7500 10996,7530 10971,7556 10941,7573 10911,7591 10877,7600 10843,7600 10809,7600 10775,7591 10745,7573 10715,7556 10690,7530 10673,7500 10656,7469 10647,7435 10647,7400 10647,7364 10656,7330 10673,7299 10690,7269 10715,7243 10745,7226 10775,7208 10809,7199 10843,7199 10877,7199 10911,7208 10941,7226 10971,7243 10996,7269 11013,7299 11030,7330 11039,7364 11039,7400 L 11039,7400 Z"/>
      <path fill="none" stroke="rgb(128,128,128)" d="M 11039,7400 C 11039,7435 11030,7469 11013,7500 10996,7530 10971,7556 10941,7573 10911,7591 10877,7600 10843,7600 10809,7600 10775,7591 10745,7573 10715,7556 10690,7530 10673,7500 10656,7469 10647,7435 10647,7400 10647,7364 10656,7330 10673,7299 10690,7269 10715,7243 10745,7226 10775,7208 10809,7199 10843,7199 10877,7199 10911,7208 10941,7226 10971,7243 10996,7269 11013,7299 11030,7330 11039,7364 11039,7400 Z"/>
     </g>
    </g>
    <g class="com.sun.star.drawing.CustomShape">
     <g id="id74">
      <rect class="BoundingBox" stroke="none" fill="none" x="11233" y="7198" width="395" height="405"/>
      <path fill="rgb(255,184,40)" stroke="none" d="M 11626,7400 C 11626,7435 11617,7470 11600,7501 11583,7531 11558,7556 11528,7574 11498,7592 11464,7601 11430,7601 11396,7601 11362,7592 11332,7574 11302,7556 11277,7531 11260,7501 11243,7470 11234,7435 11234,7400 11234,7365 11243,7330 11260,7300 11277,7269 11302,7244 11332,7226 11362,7208 11396,7199 11430,7199 11464,7199 11498,7208 11528,7226 11558,7244 11583,7269 11600,7300 11617,7330 11626,7365 11626,7400 L 11626,7400 Z"/>
      <path fill="none" stroke="rgb(128,128,128)" d="M 11626,7400 C 11626,7435 11617,7470 11600,7501 11583,7531 11558,7556 11528,7574 11498,7592 11464,7601 11430,7601 11396,7601 11362,7592 11332,7574 11302,7556 11277,7531 11260,7501 11243,7470 11234,7435 11234,7400 11234,7365 11243,7330 11260,7300 11277,7269 11302,7244 11332,7226 11362,7208 11396,7199 11430,7199 11464,7199 11498,7208 11528,7226 11558,7244 11583,7269 11600,7300 11617,7330 11626,7365 11626,7400 Z"/>
     </g>
    </g>
    <g class="com.sun.star.drawing.CustomShape">
     <g id="id75">
      <rect class="BoundingBox" stroke="none" fill="none" x="11819" y="7198" width="396" height="405"/>
      <path fill="rgb(255,184,40)" stroke="none" d="M 12213,7400 C 12213,7435 12204,7470 12187,7501 12169,7531 12145,7556 12115,7574 12085,7592 12051,7601 12017,7601 11982,7601 11948,7592 11918,7574 11888,7556 11864,7531 11846,7501 11829,7470 11820,7435 11820,7400 11820,7365 11829,7330 11846,7300 11864,7269 11888,7244 11918,7226 11948,7208 11982,7199 12017,7199 12051,7199 12085,7208 12115,7226 12145,7244 12169,7269 12187,7300 12204,7330 12213,7365 12213,7400 L 12213,7400 Z"/>
      <path fill="none" stroke="rgb(128,128,128)" d="M 12213,7400 C 12213,7435 12204,7470 12187,7501 12169,7531 12145,7556 12115,7574 12085,7592 12051,7601 12017,7601 11982,7601 11948,7592 11918,7574 11888,7556 11864,7531 11846,7501 11829,7470 11820,7435 11820,7400 11820,7365 11829,7330 11846,7300 11864,7269 11888,7244 11918,7226 11948,7208 11982,7199 12017,7199 12051,7199 12085,7208 12115,7226 12145,7244 12169,7269 12187,7300 12204,7330 12213,7365 12213,7400 Z"/>
     </g>
    </g>
    <g class="com.sun.star.drawing.CustomShape">
     <g id="id76">
      <rect class="BoundingBox" stroke="none" fill="none" x="12407" y="7200" width="394" height="404"/>
      <path fill="rgb(255,184,40)" stroke="none" d="M 12799,7402 C 12799,7437 12790,7471 12773,7502 12756,7532 12731,7558 12701,7575 12672,7593 12638,7602 12604,7602 12569,7602 12535,7593 12506,7575 12476,7558 12451,7532 12434,7502 12417,7471 12408,7437 12408,7402 12408,7366 12417,7332 12434,7301 12451,7271 12476,7245 12506,7228 12535,7210 12569,7201 12604,7201 12638,7201 12672,7210 12701,7228 12731,7245 12756,7271 12773,7301 12790,7332 12799,7366 12799,7402 L 12799,7402 Z"/>
      <path fill="none" stroke="rgb(128,128,128)" d="M 12799,7402 C 12799,7437 12790,7471 12773,7502 12756,7532 12731,7558 12701,7575 12672,7593 12638,7602 12604,7602 12569,7602 12535,7593 12506,7575 12476,7558 12451,7532 12434,7502 12417,7471 12408,7437 12408,7402 12408,7366 12417,7332 12434,7301 12451,7271 12476,7245 12506,7228 12535,7210 12569,7201 12604,7201 12638,7201 12672,7210 12701,7228 12731,7245 12756,7271 12773,7301 12790,7332 12799,7366 12799,7402 Z"/>
     </g>
    </g>
    <g class="com.sun.star.drawing.CustomShape">
     <g id="id77">
      <rect class="BoundingBox" stroke="none" fill="none" x="12992" y="7199" width="395" height="405"/>
      <path fill="rgb(179,244,171)" stroke="none" d="M 13385,7401 C 13385,7436 13376,7471 13359,7502 13342,7532 13317,7557 13287,7575 13257,7593 13223,7602 13189,7602 13155,7602 13121,7593 13091,7575 13061,7557 13036,7532 13019,7502 13002,7471 12993,7436 12993,7401 12993,7366 13002,7331 13019,7301 13036,7270 13061,7245 13091,7227 13121,7209 13155,7200 13189,7200 13223,7200 13257,7209 13287,7227 13317,7245 13342,7270 13359,7301 13376,7331 13385,7366 13385,7401 L 13385,7401 Z"/>
      <path fill="none" stroke="rgb(128,128,128)" d="M 13385,7401 C 13385,7436 13376,7471 13359,7502 13342,7532 13317,7557 13287,7575 13257,7593 13223,7602 13189,7602 13155,7602 13121,7593 13091,7575 13061,7557 13036,7532 13019,7502 13002,7471 12993,7436 12993,7401 12993,7366 13002,7331 13019,7301 13036,7270 13061,7245 13091,7227 13121,7209 13155,7200 13189,7200 13223,7200 13257,7209 13287,7227 13317,7245 13342,7270 13359,7301 13376,7331 13385,7366 13385,7401 Z"/>
     </g>
    </g>
    <g class="com.sun.star.drawing.CustomShape">
     <g id="id78">
      <rect class="BoundingBox" stroke="none" fill="none" x="10646" y="7799" width="395" height="404"/>
      <path fill="rgb(179,244,171)" stroke="none" d="M 11039,8001 C 11039,8036 11030,8070 11013,8101 10996,8131 10971,8157 10941,8174 10911,8192 10877,8201 10843,8201 10809,8201 10775,8192 10745,8174 10715,8157 10690,8131 10673,8101 10656,8070 10647,8036 10647,8001 10647,7965 10656,7931 10673,7900 10690,7870 10715,7844 10745,7827 10775,7809 10809,7800 10843,7800 10877,7800 10911,7809 10941,7827 10971,7844 10996,7870 11013,7900 11030,7931 11039,7965 11039,8001 L 11039,8001 Z"/>
      <path fill="none" stroke="rgb(128,128,128)" d="M 11039,8001 C 11039,8036 11030,8070 11013,8101 10996,8131 10971,8157 10941,8174 10911,8192 10877,8201 10843,8201 10809,8201 10775,8192 10745,8174 10715,8157 10690,8131 10673,8101 10656,8070 10647,8036 10647,8001 10647,7965 10656,7931 10673,7900 10690,7870 10715,7844 10745,7827 10775,7809 10809,7800 10843,7800 10877,7800 10911,7809 10941,7827 10971,7844 10996,7870 11013,7900 11030,7931 11039,7965 11039,8001 Z"/>
     </g>
    </g>
    <g class="com.sun.star.drawing.CustomShape">
     <g id="id79">
      <rect class="BoundingBox" stroke="none" fill="none" x="11233" y="7800" width="395" height="404"/>
      <path fill="rgb(255,184,40)" stroke="none" d="M 11626,8002 C 11626,8037 11617,8071 11600,8102 11583,8132 11558,8158 11528,8175 11498,8193 11464,8202 11430,8202 11396,8202 11362,8193 11332,8175 11302,8158 11277,8132 11260,8102 11243,8071 11234,8037 11234,8002 11234,7966 11243,7932 11260,7901 11277,7871 11302,7845 11332,7828 11362,7810 11396,7801 11430,7801 11464,7801 11498,7810 11528,7828 11558,7845 11583,7871 11600,7901 11617,7932 11626,7966 11626,8002 L 11626,8002 Z"/>
      <path fill="none" stroke="rgb(128,128,128)" d="M 11626,8002 C 11626,8037 11617,8071 11600,8102 11583,8132 11558,8158 11528,8175 11498,8193 11464,8202 11430,8202 11396,8202 11362,8193 11332,8175 11302,8158 11277,8132 11260,8102 11243,8071 11234,8037 11234,8002 11234,7966 11243,7932 11260,7901 11277,7871 11302,7845 11332,7828 11362,7810 11396,7801 11430,7801 11464,7801 11498,7810 11528,7828 11558,7845 11583,7871 11600,7901 11617,7932 11626,7966 11626,8002 Z"/>
     </g>
    </g>
    <g class="com.sun.star.drawing.CustomShape">
     <g id="id80">
      <rect class="BoundingBox" stroke="none" fill="none" x="11820" y="7800" width="396" height="404"/>
      <path fill="rgb(255,184,40)" stroke="none" d="M 12214,8002 C 12214,8037 12205,8071 12188,8102 12170,8132 12146,8158 12116,8175 12086,8193 12052,8202 12018,8202 11983,8202 11949,8193 11919,8175 11889,8158 11865,8132 11847,8102 11830,8071 11821,8037 11821,8002 11821,7966 11830,7932 11847,7901 11865,7871 11889,7845 11919,7828 11949,7810 11983,7801 12018,7801 12052,7801 12086,7810 12116,7828 12146,7845 12170,7871 12188,7901 12205,7932 12214,7966 12214,8002 L 12214,8002 Z"/>
      <path fill="none" stroke="rgb(128,128,128)" d="M 12214,8002 C 12214,8037 12205,8071 12188,8102 12170,8132 12146,8158 12116,8175 12086,8193 12052,8202 12018,8202 11983,8202 11949,8193 11919,8175 11889,8158 11865,8132 11847,8102 11830,8071 11821,8037 11821,8002 11821,7966 11830,7932 11847,7901 11865,7871 11889,7845 11919,7828 11949,7810 11983,7801 12018,7801 12052,7801 12086,7810 12116,7828 12146,7845 12170,7871 12188,7901 12205,7932 12214,7966 12214,8002 Z"/>
     </g>
    </g>
    <g class="com.sun.star.drawing.CustomShape">
     <g id="id81">
      <rect class="BoundingBox" stroke="none" fill="none" x="12408" y="7800" width="394" height="403"/>
      <path fill="rgb(255,184,40)" stroke="none" d="M 12800,8001 C 12800,8036 12791,8071 12774,8101 12757,8131 12732,8157 12702,8174 12673,8192 12639,8201 12605,8201 12570,8201 12536,8192 12507,8174 12477,8157 12452,8131 12435,8101 12418,8071 12409,8036 12409,8001 12409,7966 12418,7931 12435,7901 12452,7871 12477,7845 12507,7828 12536,7810 12570,7801 12605,7801 12639,7801 12673,7810 12702,7828 12732,7845 12757,7871 12774,7901 12791,7931 12800,7966 12800,8001 L 12800,8001 Z"/>
      <path fill="none" stroke="rgb(128,128,128)" d="M 12800,8001 C 12800,8036 12791,8071 12774,8101 12757,8131 12732,8157 12702,8174 12673,8192 12639,8201 12605,8201 12570,8201 12536,8192 12507,8174 12477,8157 12452,8131 12435,8101 12418,8071 12409,8036 12409,8001 12409,7966 12418,7931 12435,7901 12452,7871 12477,7845 12507,7828 12536,7810 12570,7801 12605,7801 12639,7801 12673,7810 12702,7828 12732,7845 12757,7871 12774,7901 12791,7931 12800,7966 12800,8001 Z"/>
     </g>
    </g>
    <g class="com.sun.star.drawing.CustomShape">
     <g id="id82">
      <rect class="BoundingBox" stroke="none" fill="none" x="12993" y="7801" width="395" height="404"/>
      <path fill="rgb(179,244,171)" stroke="none" d="M 13386,8003 C 13386,8038 13377,8072 13360,8103 13343,8133 13318,8159 13288,8176 13258,8194 13224,8203 13190,8203 13156,8203 13122,8194 13092,8176 13062,8159 13037,8133 13020,8103 13003,8072 12994,8038 12994,8003 12994,7967 13003,7933 13020,7902 13037,7872 13062,7846 13092,7829 13122,7811 13156,7802 13190,7802 13224,7802 13258,7811 13288,7829 13318,7846 13343,7872 13360,7902 13377,7933 13386,7967 13386,8003 L 13386,8003 Z"/>
      <path fill="none" stroke="rgb(128,128,128)" d="M 13386,8003 C 13386,8038 13377,8072 13360,8103 13343,8133 13318,8159 13288,8176 13258,8194 13224,8203 13190,8203 13156,8203 13122,8194 13092,8176 13062,8159 13037,8133 13020,8103 13003,8072 12994,8038 12994,8003 12994,7967 13003,7933 13020,7902 13037,7872 13062,7846 13092,7829 13122,7811 13156,7802 13190,7802 13224,7802 13258,7811 13288,7829 13318,7846 13343,7872 13360,7902 13377,7933 13386,7967 13386,8003 Z"/>
     </g>
    </g>
    <g class="com.sun.star.drawing.CustomShape">
     <g id="id83">
      <rect class="BoundingBox" stroke="none" fill="none" x="10646" y="8400" width="395" height="404"/>
      <path fill="rgb(179,244,171)" stroke="none" d="M 11039,8602 C 11039,8637 11030,8671 11013,8702 10996,8732 10971,8758 10941,8775 10911,8793 10877,8802 10843,8802 10809,8802 10775,8793 10745,8775 10715,8758 10690,8732 10673,8702 10656,8671 10647,8637 10647,8602 10647,8566 10656,8532 10673,8501 10690,8471 10715,8445 10745,8428 10775,8410 10809,8401 10843,8401 10877,8401 10911,8410 10941,8428 10971,8445 10996,8471 11013,8501 11030,8532 11039,8566 11039,8602 L 11039,8602 Z"/>
      <path fill="none" stroke="rgb(128,128,128)" d="M 11039,8602 C 11039,8637 11030,8671 11013,8702 10996,8732 10971,8758 10941,8775 10911,8793 10877,8802 10843,8802 10809,8802 10775,8793 10745,8775 10715,8758 10690,8732 10673,8702 10656,8671 10647,8637 10647,8602 10647,8566 10656,8532 10673,8501 10690,8471 10715,8445 10745,8428 10775,8410 10809,8401 10843,8401 10877,8401 10911,8410 10941,8428 10971,8445 10996,8471 11013,8501 11030,8532 11039,8566 11039,8602 Z"/>
     </g>
    </g>
    <g class="com.sun.star.drawing.CustomShape">
     <g id="id84">
      <rect class="BoundingBox" stroke="none" fill="none" x="11233" y="8400" width="395" height="404"/>
      <path fill="rgb(255,184,40)" stroke="none" d="M 11626,8602 C 11626,8637 11617,8671 11600,8702 11583,8732 11558,8758 11528,8775 11498,8793 11464,8802 11430,8802 11396,8802 11362,8793 11332,8775 11302,8758 11277,8732 11260,8702 11243,8671 11234,8637 11234,8602 11234,8566 11243,8532 11260,8501 11277,8471 11302,8445 11332,8428 11362,8410 11396,8401 11430,8401 11464,8401 11498,8410 11528,8428 11558,8445 11583,8471 11600,8501 11617,8532 11626,8566 11626,8602 L 11626,8602 Z"/>
      <path fill="none" stroke="rgb(128,128,128)" d="M 11626,8602 C 11626,8637 11617,8671 11600,8702 11583,8732 11558,8758 11528,8775 11498,8793 11464,8802 11430,8802 11396,8802 11362,8793 11332,8775 11302,8758 11277,8732 11260,8702 11243,8671 11234,8637 11234,8602 11234,8566 11243,8532 11260,8501 11277,8471 11302,8445 11332,8428 11362,8410 11396,8401 11430,8401 11464,8401 11498,8410 11528,8428 11558,8445 11583,8471 11600,8501 11617,8532 11626,8566 11626,8602 Z"/>
     </g>
    </g>
    <g class="com.sun.star.drawing.CustomShape">
     <g id="id85">
      <rect class="BoundingBox" stroke="none" fill="none" x="11820" y="8400" width="396" height="404"/>
      <path fill="rgb(255,184,40)" stroke="none" d="M 12214,8602 C 12214,8637 12205,8671 12188,8702 12170,8732 12146,8758 12116,8775 12086,8793 12052,8802 12018,8802 11983,8802 11949,8793 11919,8775 11889,8758 11865,8732 11847,8702 11830,8671 11821,8637 11821,8602 11821,8566 11830,8532 11847,8501 11865,8471 11889,8445 11919,8428 11949,8410 11983,8401 12018,8401 12052,8401 12086,8410 12116,8428 12146,8445 12170,8471 12188,8501 12205,8532 12214,8566 12214,8602 L 12214,8602 Z"/>
      <path fill="none" stroke="rgb(128,128,128)" d="M 12214,8602 C 12214,8637 12205,8671 12188,8702 12170,8732 12146,8758 12116,8775 12086,8793 12052,8802 12018,8802 11983,8802 11949,8793 11919,8775 11889,8758 11865,8732 11847,8702 11830,8671 11821,8637 11821,8602 11821,8566 11830,8532 11847,8501 11865,8471 11889,8445 11919,8428 11949,8410 11983,8401 12018,8401 12052,8401 12086,8410 12116,8428 12146,8445 12170,8471 12188,8501 12205,8532 12214,8566 12214,8602 Z"/>
     </g>
    </g>
    <g class="com.sun.star.drawing.CustomShape">
     <g id="id86">
      <rect class="BoundingBox" stroke="none" fill="none" x="12993" y="8400" width="395" height="403"/>
      <path fill="rgb(179,244,171)" stroke="none" d="M 13386,8601 C 13386,8636 13377,8671 13360,8701 13343,8731 13318,8757 13288,8774 13258,8792 13224,8801 13190,8801 13156,8801 13122,8792 13092,8774 13062,8757 13037,8731 13020,8701 13003,8671 12994,8636 12994,8601 12994,8566 13003,8531 13020,8501 13037,8471 13062,8445 13092,8428 13122,8410 13156,8401 13190,8401 13224,8401 13258,8410 13288,8428 13318,8445 13343,8471 13360,8501 13377,8531 13386,8566 13386,8601 L 13386,8601 Z"/>
      <path fill="none" stroke="rgb(128,128,128)" d="M 13386,8601 C 13386,8636 13377,8671 13360,8701 13343,8731 13318,8757 13288,8774 13258,8792 13224,8801 13190,8801 13156,8801 13122,8792 13092,8774 13062,8757 13037,8731 13020,8701 13003,8671 12994,8636 12994,8601 12994,8566 13003,8531 13020,8501 13037,8471 13062,8445 13092,8428 13122,8410 13156,8401 13190,8401 13224,8401 13258,8410 13288,8428 13318,8445 13343,8471 13360,8501 13377,8531 13386,8566 13386,8601 Z"/>
     </g>
    </g>
    <g class="com.sun.star.drawing.CustomShape">
     <g id="id87">
      <rect class="BoundingBox" stroke="none" fill="none" x="10646" y="8998" width="395" height="403"/>
      <path fill="rgb(179,244,171)" stroke="none" d="M 11039,9199 C 11039,9234 11030,9269 11013,9299 10996,9329 10971,9355 10941,9372 10911,9390 10877,9399 10843,9399 10809,9399 10775,9390 10745,9372 10715,9355 10690,9329 10673,9299 10656,9269 10647,9234 10647,9199 10647,9164 10656,9129 10673,9099 10690,9069 10715,9043 10745,9026 10775,9008 10809,8999 10843,8999 10877,8999 10911,9008 10941,9026 10971,9043 10996,9069 11013,9099 11030,9129 11039,9164 11039,9199 L 11039,9199 Z"/>
      <path fill="none" stroke="rgb(128,128,128)" d="M 11039,9199 C 11039,9234 11030,9269 11013,9299 10996,9329 10971,9355 10941,9372 10911,9390 10877,9399 10843,9399 10809,9399 10775,9390 10745,9372 10715,9355 10690,9329 10673,9299 10656,9269 10647,9234 10647,9199 10647,9164 10656,9129 10673,9099 10690,9069 10715,9043 10745,9026 10775,9008 10809,8999 10843,8999 10877,8999 10911,9008 10941,9026 10971,9043 10996,9069 11013,9099 11030,9129 11039,9164 11039,9199 Z"/>
     </g>
    </g>
    <g class="com.sun.star.drawing.CustomShape">
     <g id="id88">
      <rect class="BoundingBox" stroke="none" fill="none" x="11233" y="8999" width="395" height="404"/>
      <path fill="rgb(179,244,171)" stroke="none" d="M 11626,9201 C 11626,9236 11617,9270 11600,9301 11583,9331 11558,9357 11528,9374 11498,9392 11464,9401 11430,9401 11396,9401 11362,9392 11332,9374 11302,9357 11277,9331 11260,9301 11243,9270 11234,9236 11234,9201 11234,9165 11243,9131 11260,9100 11277,9070 11302,9044 11332,9027 11362,9009 11396,9000 11430,9000 11464,9000 11498,9009 11528,9027 11558,9044 11583,9070 11600,9100 11617,9131 11626,9165 11626,9201 L 11626,9201 Z"/>
      <path fill="none" stroke="rgb(128,128,128)" d="M 11626,9201 C 11626,9236 11617,9270 11600,9301 11583,9331 11558,9357 11528,9374 11498,9392 11464,9401 11430,9401 11396,9401 11362,9392 11332,9374 11302,9357 11277,9331 11260,9301 11243,9270 11234,9236 11234,9201 11234,9165 11243,9131 11260,9100 11277,9070 11302,9044 11332,9027 11362,9009 11396,9000 11430,9000 11464,9000 11498,9009 11528,9027 11558,9044 11583,9070 11600,9100 11617,9131 11626,9165 11626,9201 Z"/>
     </g>
    </g>
    <g class="com.sun.star.drawing.CustomShape">
     <g id="id89">
      <rect class="BoundingBox" stroke="none" fill="none" x="11820" y="8999" width="396" height="404"/>
      <path fill="rgb(179,244,171)" stroke="none" d="M 12214,9201 C 12214,9236 12205,9270 12188,9301 12170,9331 12146,9357 12116,9374 12086,9392 12052,9401 12018,9401 11983,9401 11949,9392 11919,9374 11889,9357 11865,9331 11847,9301 11830,9270 11821,9236 11821,9201 11821,9165 11830,9131 11847,9100 11865,9070 11889,9044 11919,9027 11949,9009 11983,9000 12018,9000 12052,9000 12086,9009 12116,9027 12146,9044 12170,9070 12188,9100 12205,9131 12214,9165 12214,9201 L 12214,9201 Z"/>
      <path fill="none" stroke="rgb(128,128,128)" d="M 12214,9201 C 12214,9236 12205,9270 12188,9301 12170,9331 12146,9357 12116,9374 12086,9392 12052,9401 12018,9401 11983,9401 11949,9392 11919,9374 11889,9357 11865,9331 11847,9301 11830,9270 11821,9236 11821,9201 11821,9165 11830,9131 11847,9100 11865,9070 11889,9044 11919,9027 11949,9009 11983,9000 12018,9000 12052,9000 12086,9009 12116,9027 12146,9044 12170,9070 12188,9100 12205,9131 12214,9165 12214,9201 Z"/>
     </g>
    </g>
    <g class="com.sun.star.drawing.CustomShape">
     <g id="id90">
      <rect class="BoundingBox" stroke="none" fill="none" x="12408" y="8999" width="394" height="404"/>
      <path fill="rgb(179,244,171)" stroke="none" d="M 12800,9201 C 12800,9236 12791,9270 12774,9301 12757,9331 12732,9357 12702,9374 12673,9392 12639,9401 12605,9401 12570,9401 12536,9392 12507,9374 12477,9357 12452,9331 12435,9301 12418,9270 12409,9236 12409,9201 12409,9165 12418,9131 12435,9100 12452,9070 12477,9044 12507,9027 12536,9009 12570,9000 12605,9000 12639,9000 12673,9009 12702,9027 12732,9044 12757,9070 12774,9100 12791,9131 12800,9165 12800,9201 L 12800,9201 Z"/>
      <path fill="none" stroke="rgb(128,128,128)" d="M 12800,9201 C 12800,9236 12791,9270 12774,9301 12757,9331 12732,9357 12702,9374 12673,9392 12639,9401 12605,9401 12570,9401 12536,9392 12507,9374 12477,9357 12452,9331 12435,9301 12418,9270 12409,9236 12409,9201 12409,9165 12418,9131 12435,9100 12452,9070 12477,9044 12507,9027 12536,9009 12570,9000 12605,9000 12639,9000 12673,9009 12702,9027 12732,9044 12757,9070 12774,9100 12791,9131 12800,9165 12800,9201 Z"/>
     </g>
    </g>
    <g class="com.sun.star.drawing.CustomShape">
     <g id="id91">
      <rect class="BoundingBox" stroke="none" fill="none" x="12993" y="9000" width="395" height="404"/>
      <path fill="rgb(179,244,171)" stroke="none" d="M 13386,9202 C 13386,9237 13377,9271 13360,9302 13343,9332 13318,9358 13288,9375 13258,9393 13224,9402 13190,9402 13156,9402 13122,9393 13092,9375 13062,9358 13037,9332 13020,9302 13003,9271 12994,9237 12994,9202 12994,9166 13003,9132 13020,9101 13037,9071 13062,9045 13092,9028 13122,9010 13156,9001 13190,9001 13224,9001 13258,9010 13288,9028 13318,9045 13343,9071 13360,9101 13377,9132 13386,9166 13386,9202 L 13386,9202 Z"/>
      <path fill="none" stroke="rgb(128,128,128)" d="M 13386,9202 C 13386,9237 13377,9271 13360,9302 13343,9332 13318,9358 13288,9375 13258,9393 13224,9402 13190,9402 13156,9402 13122,9393 13092,9375 13062,9358 13037,9332 13020,9302 13003,9271 12994,9237 12994,9202 12994,9166 13003,9132 13020,9101 13037,9071 13062,9045 13092,9028 13122,9010 13156,9001 13190,9001 13224,9001 13258,9010 13288,9028 13318,9045 13343,9071 13360,9101 13377,9132 13386,9166 13386,9202 Z"/>
     </g>
    </g>
    <g class="com.sun.star.drawing.LineShape">
     <g id="id92">
      <rect class="BoundingBox" stroke="none" fill="none" x="12021" y="7997" width="624" height="639"/>
      <path fill="none" stroke="rgb(0,0,0)" d="M 12022,7998 L 12543,8532"/>
      <path fill="rgb(0,0,0)" stroke="none" d="M 12644,8634 L 12574,8492 12503,8562 12644,8634 Z"/>
     </g>
    </g>
   </g>
  </g>
 </g>
</svg>